<?xml version="1.0" standalone="no"?>
<!DOCTYPE svg PUBLIC "-//W3C//DTD SVG 20010904//EN"
 "http://www.w3.org/TR/2001/REC-SVG-20010904/DTD/svg10.dtd">
<svg version="1.0" xmlns="http://www.w3.org/2000/svg"
 width="310.000000pt" height="310.000000pt" viewBox="0 0 310.000000 310.000000"
 preserveAspectRatio="xMidYMid meet">
<metadata>
Created by potrace 1.11, written by Peter Selinger 2001-2013
</metadata>
<g transform="translate(0.000000,310.000000) scale(0.100000,-0.100000)"
fill="#000000" stroke="none">
<path d="M1421 3089 c-114 -13 -262 -43 -357 -75 -116 -37 -306 -135 -412
-210 -116 -84 -273 -241 -357 -359 -75 -103 -172 -294 -209 -409 -62 -190 -93
-427 -76 -593 23 -230 67 -390 161 -578 75 -153 162 -274 287 -400 123 -125
252 -218 407 -294 188 -93 348 -138 578 -161 166 -17 403 14 593 76 115 37
306 134 409 209 118 84 275 241 359 357 75 106 173 296 210 412 62 190 93 427
76 594 -23 229 -67 389 -161 577 -194 393 -557 692 -979 804 -169 46 -386 66
-529 50z m672 -660 c34 -18 37 -27 37 -140 0 -90 -3 -108 -18 -122 -16 -15
-65 -17 -438 -19 l-419 -3 -3 -582 -2 -583 412 0 c313 0 419 -3 438 -13 24
-12 25 -16 28 -126 2 -95 0 -117 -14 -132 -16 -18 -43 -19 -571 -19 -363 0
-561 4 -574 10 -19 10 -19 30 -19 853 0 463 4 847 8 853 21 32 49 33 580 34
383 0 539 -3 555 -11z m-173 -754 c10 -12 9 -20 -6 -42 -23 -37 -126 -166
-139 -175 -5 -4 -92 -8 -191 -8 -216 0 -221 2 -178 77 15 26 43 74 61 106 l34
57 203 0 c168 0 206 -3 216 -15z"/>
</g>
</svg>
