<svg width="260" height="35" viewBox="0 0 260 35" fill="none" xmlns="http://www.w3.org/2000/svg">
<path d="M49.5771 28.625C46.1641 28.625 43.4711 27.511 41.4981 25.284C39.5261 23.057 38.5391 20.017 38.5391 16.164C38.5391 12.312 39.5261 9.275 41.4991 7.054C43.4711 4.832 46.1641 3.721 49.5771 3.721C52.3591 3.721 54.7101 4.556 56.6281 6.225C58.5471 7.894 59.5981 10.019 59.7831 12.602H54.9901C54.7501 11.234 54.1401 10.14 53.1561 9.319C52.1721 8.499 50.9791 8.088 49.5761 8.088C47.7291 8.088 46.2671 8.81 45.1911 10.255C44.1151 11.699 43.5771 13.669 43.5771 16.165C43.5771 18.66 44.1151 20.633 45.1911 22.083C46.2671 23.533 47.7351 24.258 49.5931 24.258C51.0061 24.258 52.2021 23.869 53.1801 23.092C54.1581 22.315 54.7671 21.276 55.0061 19.973H59.8001C59.5941 22.534 58.5481 24.616 56.6621 26.22C54.7761 27.823 52.4151 28.625 49.5781 28.625H49.5771ZM71.8321 24.505C73.0921 24.505 74.0711 24.02 74.7661 23.051C75.4621 22.083 75.8101 20.717 75.8101 18.955C75.8101 17.215 75.4601 15.858 74.7581 14.885C74.0581 13.91 73.0821 13.423 71.8321 13.423C70.5711 13.423 69.5921 13.91 68.8971 14.884C68.2011 15.858 67.8541 17.215 67.8541 18.955C67.8541 20.717 68.1991 22.083 68.8891 23.051C69.5791 24.02 70.5601 24.504 71.8321 24.504V24.505ZM78.3201 25.9C76.7551 27.574 74.5921 28.411 71.8301 28.411C69.0701 28.411 66.9041 27.574 65.3341 25.9C63.7631 24.225 62.9781 21.91 62.9781 18.955C62.9781 16.022 63.7681 13.715 65.3501 12.035C66.9311 10.356 69.0921 9.516 71.8301 9.516C74.5701 9.516 76.7301 10.356 78.3121 12.036C79.8931 13.716 80.6841 16.022 80.6841 18.956C80.6841 21.91 79.8961 24.226 78.3201 25.9ZM84.5481 28.017V9.91H89.1461V12.865H89.4391C89.8091 11.825 90.4361 11.007 91.3221 10.411C92.2081 9.814 93.2381 9.516 94.4121 9.516C95.6621 9.516 96.7131 9.809 97.5661 10.394C98.4201 10.98 99.0261 11.804 99.3841 12.864H99.6781C100.102 11.847 100.798 11.034 101.765 10.427C102.732 9.82 103.841 9.516 105.091 9.516C106.884 9.516 108.303 10.063 109.346 11.158C110.39 12.252 110.911 13.73 110.911 15.59V28.017H106.167V16.854C106.167 14.709 105.167 13.637 103.167 13.637C102.21 13.637 101.444 13.943 100.868 14.556C100.292 15.169 100.004 15.962 100.004 16.936V28.017H95.4401V16.657C95.4401 15.705 95.1791 14.964 94.6571 14.433C94.1361 13.902 93.4071 13.637 92.4731 13.637C91.5491 13.637 90.7881 13.965 90.1901 14.621C89.5921 15.278 89.2931 16.11 89.2931 17.117V28.017H84.5501H84.5481ZM125.895 9.615C128.177 9.615 129.971 10.441 131.275 12.093C132.579 13.746 133.231 16.033 133.231 18.955C133.231 21.867 132.585 24.151 131.291 25.809C129.998 27.467 128.226 28.296 125.976 28.296C124.693 28.296 123.579 28.028 122.634 27.492C121.715 26.9848 120.984 26.1961 120.547 25.242H120.253V33.681H115.509V9.91H120.107V12.881H120.4C120.873 11.8819 121.634 11.0473 122.585 10.485C123.552 9.905 124.655 9.615 125.895 9.615ZM124.28 24.307C125.563 24.307 126.563 23.834 127.28 22.887C127.998 21.94 128.356 20.63 128.356 18.955C128.356 17.292 127.995 15.987 127.272 15.04C126.549 14.093 125.558 13.62 124.297 13.62C123.036 13.62 122.039 14.099 121.305 15.057C120.571 16.014 120.205 17.319 120.205 18.972C120.205 20.624 120.569 21.927 121.297 22.879C122.025 23.831 123.02 24.307 124.28 24.307ZM143.584 24.701C144.682 24.701 145.601 24.389 146.34 23.765C147.079 23.142 147.448 22.37 147.448 21.451V20.121L143.813 20.351C141.791 20.493 140.78 21.221 140.78 22.534C140.78 23.202 141.038 23.73 141.554 24.118C142.071 24.507 142.747 24.701 143.584 24.701ZM142.019 28.296C140.28 28.296 138.864 27.798 137.772 26.802C136.68 25.807 136.133 24.488 136.133 22.846C136.133 21.216 136.733 19.932 137.935 18.996C139.136 18.061 140.856 17.527 143.095 17.396L147.448 17.133V15.656C147.448 14.901 147.188 14.318 146.666 13.907C146.144 13.497 145.394 13.292 144.416 13.292C142.655 13.292 141.573 13.85 141.171 14.966H136.801C136.954 13.292 137.739 11.965 139.158 10.986C140.576 10.006 142.416 9.516 144.677 9.516C147.047 9.516 148.88 10.052 150.179 11.125C151.479 12.197 152.128 13.708 152.128 15.655V28.017H147.53V25.653H147.236C146.769 26.485 146.073 27.133 145.149 27.599C144.226 28.064 143.182 28.296 142.019 28.296ZM156.79 28.017V9.91H161.388V12.816H161.682C162.095 11.798 162.802 10.993 163.802 10.402C164.802 9.812 165.959 9.516 167.274 9.516C169.274 9.516 170.82 10.107 171.912 11.289C173.005 12.471 173.551 14.145 173.551 16.312V28.017H168.806V17.445C168.806 16.197 168.516 15.251 167.934 14.605C167.353 13.959 166.502 13.637 165.383 13.637C164.209 13.637 163.274 13.995 162.578 14.712C161.883 15.429 161.535 16.384 161.535 17.576V28.017H156.79ZM179.893 34.633C178.883 34.633 178.279 34.617 178.083 34.583V30.726C178.246 30.759 178.605 30.776 179.159 30.776C180.051 30.776 180.754 30.616 181.271 30.299C181.787 29.982 182.143 29.479 182.339 28.789L182.502 28.132L176.192 9.91H181.426L185.208 23.634H185.502L189.284 9.91H194.306L188.11 28.296C187.35 30.627 186.352 32.266 185.119 33.213C183.885 34.16 182.143 34.633 179.893 34.633ZM222.513 9.91L217.735 28.017H212.681L209.469 15.524H209.176L205.996 28.017H201.008L196.214 9.91H201.024L203.698 22.895H203.991L207.138 9.91H211.67L214.833 22.895H215.127L217.8 9.91H222.512H222.513ZM232.931 13.177C231.833 13.177 230.928 13.533 230.216 14.244C229.504 14.955 229.105 15.896 229.018 17.068H236.681C236.626 15.864 236.265 14.914 235.596 14.219C234.928 13.524 234.039 13.177 232.931 13.177ZM236.778 22.863H241.197C240.838 24.581 239.927 25.935 238.466 26.926C237.004 27.916 235.176 28.411 232.98 28.411C230.24 28.411 228.105 27.588 226.572 25.941C225.04 24.293 224.273 21.998 224.273 19.054C224.273 16.11 225.045 13.784 226.589 12.077C228.132 10.37 230.241 9.516 232.914 9.516C235.567 9.516 237.634 10.32 239.118 11.929C240.602 13.538 241.344 15.782 241.344 18.659V20.121H229V20.367C229.033 21.713 229.416 22.777 230.15 23.56C230.884 24.343 231.87 24.734 233.11 24.734C234.044 24.734 234.826 24.573 235.457 24.25C236.087 23.927 236.527 23.464 236.777 22.863H236.778ZM245.387 28.017V3H250.131V28.018H245.387V28.017ZM255.218 28.017V3H259.963V28.018H255.218V28.017Z" fill="black"/>
<path d="M49.5771 28.625C46.1641 28.625 43.4711 27.511 41.4981 25.284C39.5261 23.057 38.5391 20.017 38.5391 16.164C38.5391 12.312 39.5261 9.275 41.4991 7.054C43.4711 4.832 46.1641 3.721 49.5771 3.721C52.3591 3.721 54.7101 4.556 56.6281 6.225C58.5471 7.894 59.5981 10.019 59.7831 12.602H54.9901C54.7501 11.234 54.1401 10.14 53.1561 9.319C52.1721 8.499 50.9791 8.088 49.5761 8.088C47.7291 8.088 46.2671 8.81 45.1911 10.255C44.1151 11.699 43.5771 13.669 43.5771 16.165C43.5771 18.66 44.1151 20.633 45.1911 22.083C46.2671 23.533 47.7351 24.258 49.5931 24.258C51.0061 24.258 52.2021 23.869 53.1801 23.092C54.1581 22.315 54.7671 21.276 55.0061 19.973H59.8001C59.5941 22.534 58.5481 24.616 56.6621 26.22C54.7761 27.823 52.4151 28.625 49.5781 28.625H49.5771ZM71.8321 24.505C73.0921 24.505 74.0711 24.02 74.7661 23.051C75.4621 22.083 75.8101 20.717 75.8101 18.955C75.8101 17.215 75.4601 15.858 74.7581 14.885C74.0581 13.91 73.0821 13.423 71.8321 13.423C70.5711 13.423 69.5921 13.91 68.8971 14.884C68.2011 15.858 67.8541 17.215 67.8541 18.955C67.8541 20.717 68.1991 22.083 68.8891 23.051C69.5791 24.02 70.5601 24.504 71.8321 24.504V24.505ZM78.3201 25.9C76.7551 27.574 74.5921 28.411 71.8301 28.411C69.0701 28.411 66.9041 27.574 65.3341 25.9C63.7631 24.225 62.9781 21.91 62.9781 18.955C62.9781 16.022 63.7681 13.715 65.3501 12.035C66.9311 10.356 69.0921 9.516 71.8301 9.516C74.5701 9.516 76.7301 10.356 78.3121 12.036C79.8931 13.716 80.6841 16.022 80.6841 18.956C80.6841 21.91 79.8961 24.226 78.3201 25.9ZM84.5481 28.017V9.91H89.1461V12.865H89.4391C89.8091 11.825 90.4361 11.007 91.3221 10.411C92.2081 9.814 93.2381 9.516 94.4121 9.516C95.6621 9.516 96.7131 9.809 97.5661 10.394C98.4201 10.98 99.0261 11.804 99.3841 12.864H99.6781C100.102 11.847 100.798 11.034 101.765 10.427C102.732 9.82 103.841 9.516 105.091 9.516C106.884 9.516 108.303 10.063 109.346 11.158C110.39 12.252 110.911 13.73 110.911 15.59V28.017H106.167V16.854C106.167 14.709 105.167 13.637 103.167 13.637C102.21 13.637 101.444 13.943 100.868 14.556C100.292 15.169 100.004 15.962 100.004 16.936V28.017H95.4401V16.657C95.4401 15.705 95.1791 14.964 94.6571 14.433C94.1361 13.902 93.4071 13.637 92.4731 13.637C91.5491 13.637 90.7881 13.965 90.1901 14.621C89.5921 15.278 89.2931 16.11 89.2931 17.117V28.017H84.5501H84.5481ZM125.895 9.615C128.177 9.615 129.971 10.441 131.275 12.093C132.579 13.746 133.231 16.033 133.231 18.955C133.231 21.867 132.585 24.151 131.291 25.809C129.998 27.467 128.226 28.296 125.976 28.296C124.693 28.296 123.579 28.028 122.634 27.492C121.715 26.9848 120.984 26.1961 120.547 25.242H120.253V33.681H115.509V9.91H120.107V12.881H120.4C120.873 11.8819 121.634 11.0473 122.585 10.485C123.552 9.905 124.655 9.615 125.895 9.615ZM124.28 24.307C125.563 24.307 126.563 23.834 127.28 22.887C127.998 21.94 128.356 20.63 128.356 18.955C128.356 17.292 127.995 15.987 127.272 15.04C126.549 14.093 125.558 13.62 124.297 13.62C123.036 13.62 122.039 14.099 121.305 15.057C120.571 16.014 120.205 17.319 120.205 18.972C120.205 20.624 120.569 21.927 121.297 22.879C122.025 23.831 123.02 24.307 124.28 24.307ZM143.584 24.701C144.682 24.701 145.601 24.389 146.34 23.765C147.079 23.142 147.448 22.37 147.448 21.451V20.121L143.813 20.351C141.791 20.493 140.78 21.221 140.78 22.534C140.78 23.202 141.038 23.73 141.554 24.118C142.071 24.507 142.747 24.701 143.584 24.701ZM142.019 28.296C140.28 28.296 138.864 27.798 137.772 26.802C136.68 25.807 136.133 24.488 136.133 22.846C136.133 21.216 136.733 19.932 137.935 18.996C139.136 18.061 140.856 17.527 143.095 17.396L147.448 17.133V15.656C147.448 14.901 147.188 14.318 146.666 13.907C146.144 13.497 145.394 13.292 144.416 13.292C142.655 13.292 141.573 13.85 141.171 14.966H136.801C136.954 13.292 137.739 11.965 139.158 10.986C140.576 10.006 142.416 9.516 144.677 9.516C147.047 9.516 148.88 10.052 150.179 11.125C151.479 12.197 152.128 13.708 152.128 15.655V28.017H147.53V25.653H147.236C146.769 26.485 146.073 27.133 145.149 27.599C144.226 28.064 143.182 28.296 142.019 28.296ZM156.79 28.017V9.91H161.388V12.816H161.682C162.095 11.798 162.802 10.993 163.802 10.402C164.802 9.812 165.959 9.516 167.274 9.516C169.274 9.516 170.82 10.107 171.912 11.289C173.005 12.471 173.551 14.145 173.551 16.312V28.017H168.806V17.445C168.806 16.197 168.516 15.251 167.934 14.605C167.353 13.959 166.502 13.637 165.383 13.637C164.209 13.637 163.274 13.995 162.578 14.712C161.883 15.429 161.535 16.384 161.535 17.576V28.017H156.79ZM179.893 34.633C178.883 34.633 178.279 34.617 178.083 34.583V30.726C178.246 30.759 178.605 30.776 179.159 30.776C180.051 30.776 180.754 30.616 181.271 30.299C181.787 29.982 182.143 29.479 182.339 28.789L182.502 28.132L176.192 9.91H181.426L185.208 23.634H185.502L189.284 9.91H194.306L188.11 28.296C187.35 30.627 186.352 32.266 185.119 33.213C183.885 34.16 182.143 34.633 179.893 34.633ZM222.513 9.91L217.735 28.017H212.681L209.469 15.524H209.176L205.996 28.017H201.008L196.214 9.91H201.024L203.698 22.895H203.991L207.138 9.91H211.67L214.833 22.895H215.127L217.8 9.91H222.512H222.513ZM232.931 13.177C231.833 13.177 230.928 13.533 230.216 14.244C229.504 14.955 229.105 15.896 229.018 17.068H236.681C236.626 15.864 236.265 14.914 235.596 14.219C234.928 13.524 234.039 13.177 232.931 13.177ZM236.778 22.863H241.197C240.838 24.581 239.927 25.935 238.466 26.926C237.004 27.916 235.176 28.411 232.98 28.411C230.24 28.411 228.105 27.588 226.572 25.941C225.04 24.293 224.273 21.998 224.273 19.054C224.273 16.11 225.045 13.784 226.589 12.077C228.132 10.37 230.241 9.516 232.914 9.516C235.567 9.516 237.634 10.32 239.118 11.929C240.602 13.538 241.344 15.782 241.344 18.659V20.121H229V20.367C229.033 21.713 229.416 22.777 230.15 23.56C230.884 24.343 231.87 24.734 233.11 24.734C234.044 24.734 234.826 24.573 235.457 24.25C236.087 23.927 236.527 23.464 236.777 22.863H236.778ZM245.387 28.017V3H250.131V28.018H245.387V28.017ZM255.218 28.017V3H259.963V28.018H255.218V28.017Z" fill="black"/>
<path d="M17.407 18.01C17.4091 18.7155 17.1311 19.393 16.634 19.8936C16.137 20.3942 15.4615 20.6771 14.756 20.68C14.0503 20.6774 13.3746 20.3946 12.8773 19.894C12.38 19.3933 12.1019 18.7157 12.104 18.01C12.1019 17.3043 12.38 16.6267 12.8773 16.126C13.3746 15.6254 14.0503 15.3426 14.756 15.34C15.4615 15.3429 16.137 15.6258 16.634 16.1264C17.1311 16.627 17.4091 17.3045 17.407 18.01ZM23.373 30.259H10.017V5.043C10.017 4.115 10.765 3.363 11.687 3.363H21.704C22.625 3.363 23.374 4.115 23.374 5.043V30.26L23.373 30.259ZM31.721 30.259H26.712V3.362C26.712 1.504 25.218 0 23.373 0H10.017C8.174 0 6.678 1.504 6.678 3.362V30.26H1.67C0.748 30.26 0 31.013 0 31.94C0 32.869 0.748 33.622 1.67 33.622H31.72C32.642 33.622 33.39 32.869 33.39 31.941C33.39 31.013 32.642 30.26 31.72 30.26L31.721 30.259Z" fill="#D94C47"/>
</svg>
