<svg width="160" height="106" viewBox="0 0 160 106" fill="none" xmlns="http://www.w3.org/2000/svg">
<path fill-rule="evenodd" clip-rule="evenodd" d="M55.2511 17.2191L77.8329 24.1699V47.4085L55.2511 40.4576V17.2191ZM60.9992 20.8907V38.3577L64.5117 39.4193V30.7831C64.5117 30.7561 64.4919 30.7114 64.4931 30.6812C65.2977 29.9673 66.0704 29.7544 66.9631 30.0243C67.0476 30.0498 67.1351 30.0802 67.222 30.1143C67.7702 30.3306 68.1199 30.6948 68.2606 31.1971C68.3815 31.6305 68.5456 32.2733 68.5544 32.8406C68.5811 34.553 68.5824 36.2887 68.5805 37.9666C68.5796 38.5946 68.5863 39.2253 68.5863 39.8537V40.6508L72.0475 41.697L72.0669 41.2975L72.0715 41.2391C72.0754 41.174 72.0784 41.1164 72.0784 41.0583C72.0788 40.3959 72.0806 39.7342 72.0818 39.0718C72.0851 37.285 72.09 35.4375 72.0696 33.6117C72.0614 32.8711 71.9788 32.1222 71.8193 31.3843C71.4607 29.7269 70.6564 28.4662 69.4185 27.6338C68.8282 27.237 68.2466 26.9502 67.6693 26.7757C66.5286 26.4309 65.3549 26.5058 64.3713 27.0553V21.91L60.9992 20.8907ZM104.11 17.2191V40.4576L81.5282 47.4085V24.1699L104.11 17.2191ZM93.9939 23.7465L90.7011 24.7607V28.3879L89.3292 28.8103V31.9842L90.6976 31.5627C90.6976 32.0164 90.6964 32.5256 90.6952 32.9945C90.6919 34.1515 90.6889 35.3733 90.705 36.546C90.7162 37.3813 90.7691 38.0493 90.8714 38.6485C91.1298 40.16 91.9579 40.9311 93.2664 40.8785C93.688 40.8616 94.1167 40.7868 94.5407 40.6562C95.5747 40.3377 96.5939 39.6982 97.6567 38.7015L97.9513 38.4249L97.1321 36.0262L96.7728 36.2238C96.5912 36.3234 96.4132 36.4251 96.237 36.5255C95.8566 36.7427 95.4973 36.9474 95.1365 37.1157C95.0724 37.1457 95.0098 37.1689 94.9505 37.1872C94.4037 37.3554 94.2253 36.9818 94.1719 36.6402C94.1084 36.2336 94.0755 35.7839 94.0714 35.2734C94.0619 34.0576 94.0636 32.808 94.0657 31.6078L94.0669 30.525L97.1496 29.5756V26.4017L93.9939 27.3737V23.7465ZM79.6805 0.0845337L112.732 10.6918L79.6805 21.2987L46.6289 10.6918L79.6805 0.0845337Z" fill="#00C4F7"/>
<path fill-rule="evenodd" clip-rule="evenodd" d="M75.6127 66.9587V73.4814H81.7355V77.5888H75.6331C75.6331 78.4941 75.6266 79.2675 75.6343 80.0406C75.6635 82.9756 75.6326 85.9131 75.7495 88.8447C75.8456 91.2552 77.1487 92.1883 79.533 91.6951C80.3375 91.5287 81.1167 91.2405 82.0194 90.9751C82.383 92.0313 82.7785 93.1519 83.1414 94.2829C83.1741 94.3846 83.0309 94.6174 82.9113 94.6817C80.1214 96.1827 77.2031 96.7986 74.1554 95.609C72.0144 94.7733 71.1167 92.9285 70.7893 90.7916C70.6228 89.7055 70.5577 88.5957 70.5459 87.4956C70.5139 84.5091 70.5347 81.5221 70.5347 78.5354V77.6397H67.6611V73.5283H70.6347V66.9587H75.6127ZM114.25 66.939V73.4853H120.41V77.6192H114.416C114.355 77.7395 114.314 77.7822 114.314 77.8246C114.337 81.4871 114.295 85.1518 114.411 88.8114C114.489 91.2727 115.813 92.2 118.234 91.6835C119.035 91.5127 119.812 91.2286 120.681 90.9723C121.047 92.025 121.426 93.0578 121.752 94.1065C121.803 94.2715 121.678 94.6192 121.533 94.6979C118.846 96.1599 116.011 96.7393 113.053 95.7121C110.792 94.9268 109.803 93.0546 109.454 90.8247C109.283 89.7393 109.219 88.629 109.207 87.5289C109.174 84.5424 109.196 81.5555 109.195 78.5687V77.6656H106.333V73.5528H109.291V66.939H114.25ZM103.81 73.3615V95.4873H99.3977C99.2935 94.4986 99.1903 93.5193 99.0949 92.6128C97.9743 93.4644 96.9492 94.4024 95.78 95.1005C92.9249 96.8051 89.0523 96.5243 86.7248 94.5416C85.189 93.2331 84.5131 91.4724 84.2241 89.5429C84.1095 88.7768 84.0551 87.9949 84.0522 87.2199C84.0359 82.8022 84.0432 78.3844 84.0439 73.9666C84.0439 73.7944 84.0596 73.6222 84.0708 73.3937H89.2118V74.1888C89.2118 77.979 89.2038 81.7694 89.2183 85.5595C89.2214 86.3605 89.274 87.1646 89.3602 87.9612C89.6786 90.9024 91.8634 92.2952 94.6909 91.3732C96.3646 90.8276 97.5959 89.7104 98.566 88.2911C98.7167 88.0707 98.7243 87.7236 98.7249 87.4349L98.7317 80.8459L98.7314 73.3615H103.81ZM133.628 72.5503C139.377 73.0596 142.772 77.027 143.401 82.4514C143.473 83.0739 143.491 83.7025 143.534 84.3284C143.478 87.0929 142.924 89.7237 141.271 92.0006C139.089 95.0065 136.017 96.2258 132.379 96.189C129.39 96.159 126.742 95.254 124.642 93.0488C123.013 91.3377 122.147 89.252 121.775 86.95C121.301 84.0126 121.513 81.1347 122.782 78.4147C124.719 74.2637 128.801 72.1228 133.628 72.5503ZM159.304 73.5248C158.972 75.0509 158.654 76.5116 158.377 77.7838C157.046 77.7687 155.771 77.6107 154.539 77.774C152.661 78.0232 151.662 79.4645 150.84 81.0043C150.733 81.2045 150.786 81.4968 150.786 81.7464L150.784 88.1813L150.784 95.488H145.675V73.3865H149.935C150.039 74.3793 150.146 75.3879 150.27 76.5722C152.51 73.126 155.427 71.9447 159.304 73.5248ZM132.647 76.9779C130.021 76.9537 128.174 78.1389 127.397 80.5268C127.015 81.702 126.882 82.9576 126.636 84.1767C126.797 85.9312 127.001 87.6126 127.878 89.1406C128.98 91.0617 130.711 91.8417 132.86 91.7472C134.942 91.6557 136.53 90.6995 137.368 88.7664C138.521 86.1058 138.53 83.3518 137.682 80.6145C136.95 78.2528 135.137 77.001 132.647 76.9779Z" fill="#2584AF"/>
<path fill-rule="evenodd" clip-rule="evenodd" d="M65.3568 73.4505C65.3736 73.6717 65.4013 73.8666 65.4013 74.0614C65.3998 81.0443 65.4288 88.0276 65.3748 95.0102C65.3543 97.6438 64.7674 100.165 63.0863 102.3C61.2153 104.677 58.6345 105.716 55.7163 105.946C52.5285 106.198 49.4918 105.565 46.6623 104.039C46.555 103.981 46.4535 103.912 46.3004 103.818C46.7561 102.44 47.188 101.135 47.5744 99.9665C49.2745 100.45 50.867 101.011 52.5067 101.331C53.5515 101.536 54.6869 101.524 55.7451 101.366C58.4295 100.964 59.9692 99.3384 60.3715 96.6147C60.5142 95.6489 60.5275 94.664 60.6156 93.4758C60.2772 93.751 60.0951 93.8923 59.9205 94.0421C57.4185 96.1879 54.5176 96.8382 51.3609 96.0907C48.1519 95.3307 46.59 92.9967 46.0106 89.9195C45.8253 88.9352 45.7441 87.9184 45.7374 86.9156C45.7228 84.7603 45.7196 82.6049 45.7202 80.4495L45.7257 73.9832C45.7257 73.835 45.7407 73.6869 45.7524 73.4737H50.8935C50.8935 73.7767 50.892 74.0701 50.8938 74.3633C50.9216 78.6733 50.9422 82.9832 50.9877 87.2931C50.9931 87.816 51.095 88.3468 51.2184 88.858C51.9735 91.9885 54.5641 92.2339 57.0868 91.3429C58.303 90.9134 59.2865 90.1125 60.0809 89.1083C60.2592 88.8831 60.33 88.5179 60.331 88.2169C60.3462 83.6035 60.3416 78.9903 60.3416 74.3769V73.4505H65.3568ZM40.791 75.7633C42.8513 78.1117 43.3332 80.9549 43.0366 83.9652C42.9514 84.8303 42.7108 85.6802 42.5301 86.5935L32.844 86.594C31.2423 86.5943 29.6445 86.5947 28.0467 86.5954L28.0261 86.603L27.9851 86.6376C27.948 88.9011 29.973 91.3774 32.3247 91.8907C35.1324 92.5035 37.6637 91.7974 39.9925 90.2065C40.177 90.0804 40.3589 89.9506 40.5921 89.7875C41.1995 90.8939 41.7862 91.9626 42.3917 93.0655C39.6003 95.5012 36.3977 96.574 32.7489 96.3186C29.2687 96.0749 26.464 94.6067 24.5057 91.6756C21.0756 86.5417 22.2372 78.3588 26.9029 74.697C30.9945 71.4858 37.4475 71.9522 40.791 75.7633ZM4.9336 65.4366V75.8017C5.4848 75.3582 5.90533 74.9908 6.35497 74.6631C9.01853 72.7219 11.9494 72.0257 15.1441 72.9932C18.0346 73.8687 19.3659 76.1002 19.8992 78.8938C20.0777 79.8285 20.1638 80.794 20.1697 81.7462C20.1835 83.9766 20.1867 86.207 20.1863 88.4375L20.1815 95.1289C20.1814 95.2774 20.1664 95.4258 20.1551 95.6336H14.9449V94.747C14.937 90.5382 14.9704 86.3286 14.8912 82.1211C14.8718 81.0918 14.5818 80.0352 14.2382 79.053C13.8604 77.974 12.9378 77.3958 11.812 77.2521C9.11237 76.9074 7.09689 78.1807 5.38793 80.0819C5.22163 80.2668 5.22785 80.6447 5.22739 80.9332C5.21815 85.5454 5.22087 90.1574 5.22087 94.7696V95.6942H0.0556641V65.4366H4.9336ZM27.8831 82.7325H38.1997C38.5628 79.2633 36.7022 76.896 33.5755 76.7961C29.9013 76.6789 27.9252 79.7514 27.8831 82.7325Z" fill="#00C4F7"/>
</svg>
