<svg width="220" height="90" viewBox="0 0 220 90" fill="none" xmlns="http://www.w3.org/2000/svg">
<g clip-path="url(#clip0_17_185)">
<path fill-rule="evenodd" clip-rule="evenodd" d="M162.433 53.3713C164.166 53.3713 165.954 53.7285 167.268 54.4159C168.106 54.855 168.666 55.3766 168.666 56.2278C168.666 57.1071 168.079 58.4256 166.877 58.4256C166.317 58.4256 165.787 58.1231 165.033 57.8212C164.194 57.492 163.327 57.2724 162.321 57.2724C159.722 57.2724 157.208 58.7276 157.208 62.5459C157.208 66.2536 159.583 67.9841 162.35 67.9841C163.538 67.9841 164.36 67.6695 164.505 67.6095L164.529 67.5997V65.8692C164.529 65.1 164.529 64.5784 164.865 64.1387C165.199 63.6991 165.787 63.5066 166.737 63.5066C167.687 63.5066 168.274 63.6991 168.61 64.1387C168.917 64.5417 168.942 65.0136 168.945 65.682L168.945 68.4786C168.945 69.6594 168.721 70.291 167.156 70.9231C165.87 71.4442 164.11 71.7743 162.377 71.7743C157.04 71.7743 152.736 68.6986 152.736 62.6007C152.736 56.0906 157.626 53.3713 162.433 53.3713ZM65.065 54.1491C65.4851 54.4511 65.7357 54.9465 65.7357 55.7701C65.7357 56.6213 65.4851 57.1157 65.065 57.4177C64.6553 57.695 64.1989 57.7181 63.5441 57.72L59.1683 57.7202V60.9063H62.5787C63.3333 60.9063 63.8359 60.9063 64.2832 61.2079C64.702 61.5103 64.954 61.9776 64.954 62.8017C64.954 63.6533 64.702 64.1197 64.2832 64.4221C63.8732 64.699 63.4167 64.722 62.7622 64.724L59.1683 64.7241V69.366C59.1683 70.1076 59.1683 70.6292 58.8334 71.0689C58.4975 71.5085 57.9392 71.7281 57.0164 71.7281C56.0951 71.7281 55.5072 71.5085 55.1723 71.0689C54.8653 70.6658 54.8398 70.194 54.8376 69.5469L54.8374 55.8249C54.8374 54.3963 55.4239 53.8476 56.9054 53.8476H63.3605C64.1155 53.8476 64.6181 53.8476 65.065 54.1491ZM217.728 54.1491C218.147 54.4511 218.399 54.9465 218.399 55.7972C218.399 56.6213 218.147 57.1157 217.728 57.4177C217.319 57.695 216.862 57.7181 216.207 57.72L212.977 57.7202V69.366C212.977 70.1076 212.977 70.6292 212.642 71.0689C212.307 71.5085 211.719 71.7281 210.769 71.7281C209.819 71.7281 209.233 71.5085 208.897 71.0689C208.59 70.6658 208.565 70.194 208.562 69.5469L208.562 57.7202H205.516C204.761 57.7202 204.259 57.7202 203.811 57.4177C203.392 57.1157 203.14 56.6213 203.14 55.7972C203.14 54.9465 203.392 54.4511 203.811 54.1491C204.221 53.8727 204.678 53.8497 205.332 53.8478L216.024 53.8476C216.779 53.8476 217.282 53.8476 217.728 54.1491ZM121.073 53.3713C122.583 53.3713 124.287 53.5089 125.769 54.1958C127.613 55.0751 128.675 56.6675 128.675 58.8929C128.675 61.1178 127.613 62.8484 125.685 63.8363L129.821 69.3026C130.603 70.3191 130.156 71.4999 128.032 71.4999C126.384 71.4999 125.797 70.8131 125.014 69.687L122.778 66.3913C122.304 65.7049 121.8 64.798 121.8 64.798H120.123V69.1378C120.123 69.8795 120.095 70.401 119.788 70.8407C119.453 71.307 118.838 71.4999 117.999 71.4999C117.022 71.4999 116.491 71.2256 116.211 70.8407C115.931 70.441 115.906 69.9736 115.903 69.3347L115.903 56.1735C115.903 55.2394 115.903 54.2506 117.552 53.7566C118.306 53.5366 119.424 53.3713 121.073 53.3713ZM18.5165 53.3713C19.2158 53.3713 19.858 53.5085 20.3053 54.0305C20.6693 54.4421 20.7808 54.9646 20.8646 55.953L22.0937 68.973C22.1223 69.3017 22.1775 69.7142 22.1775 69.9885C22.1775 70.9498 21.5354 71.4718 20.0543 71.4718C18.4894 71.4718 17.8467 70.895 17.7629 69.7409L17.0354 60.0732L13.2077 68.4228C12.7875 69.3298 12.3687 70.0162 11.083 70.0162C9.79817 70.0162 9.37847 69.3298 8.95973 68.4228L5.15864 60.0456L4.40405 69.7409C4.3202 70.8397 3.73329 71.4718 2.11263 71.4718C0.714424 71.4718 0.0722656 71.0046 0.0722656 69.9604C0.0722656 69.7408 0.10086 69.3574 0.15611 68.8901L1.44188 55.953C1.55335 54.8274 1.72104 54.3049 2.14026 53.9205C2.50326 53.5913 3.09114 53.3713 3.98531 53.3713C5.74555 53.3713 6.38771 54.2506 7.1709 55.8158L11.2226 63.9734L15.3309 55.8158C16.1412 54.1953 16.812 53.3713 18.5165 53.3713ZM44.3632 53.3713C45.901 53.3713 46.4036 53.8657 46.4036 54.5521C46.4036 55.047 46.1516 55.459 45.7329 56.0902L40.1153 64.6327V69.0826C40.1153 69.8518 40.1153 70.3729 39.7804 70.8126C39.4445 71.2518 38.8581 71.4447 37.9082 71.4447C36.9578 71.4447 36.3704 71.2518 36.0355 70.8126C35.7272 70.4096 35.7015 69.9381 35.6994 69.2698L35.6992 64.6603L30.3337 56.2283C29.8863 55.5414 29.6358 55.1018 29.6358 54.635C29.6358 53.8386 30.3065 53.3713 31.8147 53.3713C33.6317 53.3713 34.2748 54.0305 35.0013 55.2942L38.0749 60.6229L41.2615 55.2666C41.9322 54.1406 42.4348 53.3713 44.3632 53.3713ZM105.429 53.3713C106.966 53.3713 107.469 53.8657 107.469 54.5521C107.469 55.047 107.217 55.459 106.798 56.0902L101.181 64.6327V69.0826C101.181 69.8518 101.181 70.3729 100.846 70.8126C100.51 71.2518 99.9237 71.4447 98.9733 71.4447C98.0224 71.4447 97.4355 71.2518 97.1006 70.8126C96.7928 70.4096 96.7671 69.9381 96.765 69.2698L96.7648 64.6603L91.3993 56.2283C90.9519 55.5414 90.7014 55.1018 90.7014 54.635C90.7014 53.8386 91.3721 53.3713 92.8813 53.3713C94.6973 53.3713 95.3399 54.0305 96.0669 55.2942L99.1415 60.6229L102.327 55.2666C102.998 54.1406 103.5 53.3713 105.429 53.3713ZM141.375 53.3713C142.325 53.3713 142.911 53.5637 143.247 54.0029C143.554 54.4059 143.58 54.8774 143.582 55.546L143.582 69.0821C143.582 69.8514 143.582 70.3725 143.247 70.8121C142.911 71.2513 142.325 71.4442 141.375 71.4442C140.425 71.4442 139.838 71.2513 139.502 70.8121C139.194 70.4091 139.168 69.9376 139.166 69.2693L139.166 55.7334C139.166 54.9637 139.166 54.4425 139.502 54.0029C139.838 53.5637 140.425 53.3713 141.375 53.3713ZM192.395 53.3713C193.345 53.3713 193.932 53.5637 194.268 54.0029C194.603 54.4425 194.603 54.9637 194.603 55.7334V69.0821C194.603 69.8514 194.603 70.3725 194.268 70.8121C193.932 71.2513 193.345 71.4442 192.395 71.4442C191.445 71.4442 190.859 71.2513 190.523 70.8121C190.216 70.4091 190.19 69.9376 190.188 69.2693L190.188 63.8634H182.837V69.0821C182.837 69.8514 182.837 70.3725 182.502 70.8121C182.166 71.2513 181.58 71.4442 180.63 71.4442C179.68 71.4442 179.092 71.2513 178.757 70.8121C178.45 70.4091 178.425 69.9376 178.423 69.2693L178.423 55.7334C178.423 54.9637 178.423 54.4425 178.757 54.0029C179.092 53.5637 179.68 53.3713 180.63 53.3713C181.58 53.3713 182.166 53.5637 182.502 54.0029C182.809 54.4059 182.835 54.8774 182.837 55.546L182.837 60.018H190.188V55.7334C190.188 54.9637 190.188 54.4425 190.523 54.0029C190.859 53.5637 191.445 53.3713 192.395 53.3713ZM76.916 53.3713C77.866 53.3713 78.4529 53.5637 78.7887 54.0029C79.0957 54.4059 79.1213 54.8774 79.1234 55.546L79.1236 67.4345H83.6507C84.4053 67.4345 84.9093 67.4345 85.3567 67.736C85.7754 68.0384 86.0269 68.5333 86.0269 69.3846C86.0269 70.2081 85.7754 70.7021 85.3567 71.0046C84.9466 71.2818 84.4889 71.3049 83.8342 71.3068L76.7765 71.307C75.2392 71.307 74.708 70.7302 74.708 69.274V55.7334C74.708 54.9637 74.708 54.4425 75.0438 54.0029C75.3797 53.5637 75.9666 53.3713 76.916 53.3713ZM121.352 56.9976C120.682 56.9976 120.123 57.08 120.123 57.08V61.4194C120.123 61.4194 120.487 61.4475 120.906 61.4475C123.141 61.4475 124.232 60.6782 124.232 59.1401C124.232 57.492 122.975 56.9976 121.352 56.9976Z" fill="#686867"/>
<path fill-rule="evenodd" clip-rule="evenodd" d="M109.654 0.671692C120.742 0.671692 129.73 9.66004 129.73 20.7477C129.73 31.8354 120.742 40.8238 109.654 40.8238C98.5664 40.8238 89.5781 31.8354 89.5781 20.7477C89.5781 9.66004 98.5664 0.671692 109.654 0.671692ZM100.945 14.6177C100.67 14.7855 100.792 14.8925 100.792 14.8925L108.176 20.2016C106.361 22.1541 104.561 24.5798 104.576 24.5798C103.417 24.3205 102.257 24.1527 101.784 24.2899C101.311 24.4276 101.555 24.6562 101.555 24.6562L104.113 26.0663L105.546 28.617C105.546 28.617 105.776 28.8602 105.91 28.386C106.045 27.9127 105.871 26.7541 105.606 25.5959C105.606 25.611 108.021 23.7977 109.965 21.9717L115.313 29.3272C115.313 29.3272 115.42 29.4483 115.587 29.173C115.754 28.8977 116.071 28.4686 115.809 27.8903C115.691 27.6295 114.987 25.9414 114.251 24.1665L114.059 23.7024C113.224 21.6903 112.409 19.7162 112.409 19.7162C112.409 19.7162 113.775 18.5036 114.472 17.63C115.17 16.7569 116.171 15.1138 115.587 14.534C115.003 13.9537 113.363 14.9684 112.494 15.6703C111.624 16.3721 110.419 17.7453 110.419 17.7453C110.419 17.7453 108.733 17.0594 106.888 16.3062L106.424 16.1169C104.485 15.3251 102.511 14.5161 102.226 14.3891C101.647 14.1293 101.219 14.4499 100.945 14.6177Z" fill="#00ADE9"/>
<path fill-rule="evenodd" clip-rule="evenodd" d="M4.16641 81.8971V82.8395H1.28771V85.0737H3.84655V86.0055H1.28771V88.3244H4.16641V89.2668H0.0722656V81.8971H4.16641ZM13.1669 81.9077L10.8533 85.5925L13.1563 89.2668H11.7916L10.1176 86.5984L8.55036 89.2668H7.18564L9.4886 85.5925L7.18564 81.9077H8.55036L10.2243 84.5866L11.8022 81.9077H13.1669ZM18.841 81.9077C19.6797 81.9077 20.3265 82.1142 20.7814 82.5271C21.2363 82.9401 21.4638 83.4554 21.4638 84.073C21.4638 84.6907 21.2488 85.2131 20.8187 85.6402C20.3887 86.0672 19.7294 86.2808 18.841 86.2808H17.4976V89.2668H16.2821V81.9077H18.841ZM17.4976 85.3384H18.841C19.303 85.3384 19.6477 85.229 19.8752 85.0101C20.1026 84.7913 20.2163 84.486 20.2163 84.0942C20.2163 83.7025 20.1026 83.3971 19.8752 83.1783C19.6477 82.9595 19.303 82.8501 18.841 82.8501H17.4976V85.3384ZM28.5132 81.8971V82.8395H25.6345V85.0737H28.1933V86.0055H25.6345V88.3244H28.5132V89.2668H24.419V81.8971H28.5132ZM33.0144 86.2808V89.2668H31.799V81.9077H34.3578C35.1965 81.9077 35.8433 82.1142 36.2982 82.5271C36.7532 82.9401 36.9806 83.4642 36.9806 84.0995C36.9806 84.5937 36.8296 85.0384 36.5275 85.4337C36.2254 85.829 35.7616 86.0867 35.1361 86.2067L37.0979 89.2668H35.6159L33.7607 86.2808H33.0144ZM33.0144 82.8501V85.3384H34.3578C34.8198 85.3384 35.1645 85.229 35.392 85.0101C35.6194 84.7913 35.7332 84.486 35.7332 84.0942C35.7332 83.7025 35.6194 83.3971 35.392 83.1783C35.1645 82.9595 34.8198 82.8501 34.3578 82.8501H33.0144ZM39.9465 82.8501V81.9077H45.1175V82.8501H43.1451V89.2668H41.9296V82.8501H39.9465ZM50.4397 82.7971C50.0772 82.7971 49.7822 82.8889 49.5548 83.0724C49.3273 83.256 49.2136 83.5224 49.2136 83.8719C49.2136 84.2213 49.3486 84.4878 49.6187 84.6713C49.8888 84.8548 50.2158 84.989 50.5996 85.0737C50.9835 85.1584 51.3673 85.2554 51.7511 85.3649C52.1349 85.4743 52.4619 85.6772 52.732 85.9737C53.0021 86.2702 53.1371 86.6902 53.1371 87.2338C53.1371 87.7773 52.9061 88.2644 52.4441 88.695C51.9821 89.1256 51.3637 89.3409 50.589 89.3409C49.8142 89.3409 49.1852 89.1609 48.7018 88.8009C48.2185 88.4409 47.9768 87.9432 47.9768 87.3079H49.2776C49.306 87.6326 49.4268 87.8903 49.6401 88.0809C49.8533 88.2714 50.166 88.3667 50.5783 88.3667C50.9906 88.3667 51.3158 88.2609 51.5539 88.0491C51.792 87.8373 51.911 87.5867 51.911 87.2973C51.911 87.0079 51.8382 86.782 51.6925 86.6196C51.5468 86.4573 51.3584 86.3355 51.1274 86.2543C50.8964 86.1731 50.6423 86.1008 50.3651 86.0372C50.0879 85.9737 49.8089 85.8996 49.5281 85.8149C49.2474 85.7302 48.9915 85.6208 48.7605 85.4866C48.5295 85.3525 48.3411 85.1566 48.1954 84.899C48.0497 84.6413 47.9768 84.3254 47.9768 83.9513C47.9768 83.3089 48.2096 82.7918 48.6752 82.4C49.1407 82.0083 49.7449 81.8124 50.4877 81.8124C51.2305 81.8124 51.824 81.9818 52.2682 82.3206C52.7125 82.6595 52.9594 83.1501 53.0092 83.7925H51.6658C51.6374 83.5101 51.5165 83.2736 51.3033 83.083C51.0901 82.8924 50.8022 82.7971 50.4397 82.7971ZM61.3613 89.2668V81.9077H65.722V82.8501H62.5767V85.0843H65.029V86.0161H62.5767V89.2668H61.3613ZM72.0251 88.2503C72.7714 88.2503 73.3809 88.005 73.8536 87.5144C74.3262 87.0238 74.5626 86.3778 74.5626 85.5766C74.5626 84.7754 74.3262 84.1313 73.8536 83.6442C73.3809 83.1571 72.7714 82.9136 72.0251 82.9136C71.2787 82.9136 70.6692 83.1571 70.1965 83.6442C69.7239 84.1313 69.4875 84.7754 69.4875 85.5766C69.4875 86.3778 69.7239 87.0238 70.1965 87.5144C70.6692 88.005 71.2787 88.2503 72.0251 88.2503ZM72.0251 89.3409C70.966 89.3409 70.0704 88.9862 69.3383 88.2767C68.6062 87.5673 68.2401 86.6673 68.2401 85.5766C68.2401 84.486 68.6062 83.586 69.3383 82.8765C70.0704 82.1671 70.9678 81.8124 72.0304 81.8124C73.093 81.8124 73.9886 82.1671 74.7172 82.8765C75.4457 83.586 75.81 84.486 75.81 85.5766C75.81 86.6673 75.4457 87.5673 74.7172 88.2767C73.9886 88.9862 73.0912 89.3409 72.0251 89.3409ZM80.0127 86.2808V89.2668H78.7972V81.9077H81.3561C82.1948 81.9077 82.8416 82.1142 83.2965 82.5271C83.7514 82.9401 83.9789 83.4642 83.9789 84.0995C83.9789 84.5937 83.8279 85.0384 83.5258 85.4337C83.2237 85.829 82.7599 86.0867 82.1344 86.2067L84.0962 89.2668H82.6142L80.759 86.2808H80.0127ZM80.0127 82.8501V85.3384H81.3561C81.8181 85.3384 82.1628 85.229 82.3903 85.0101C82.6177 84.7913 82.7315 84.486 82.7315 84.0942C82.7315 83.7025 82.6177 83.3971 82.3903 83.1783C82.1628 82.9595 81.8181 82.8501 81.3561 82.8501H80.0127ZM94.8792 81.9077C95.7179 81.9077 96.3647 82.1142 96.8196 82.5271C97.2745 82.9401 97.502 83.4554 97.502 84.073C97.502 84.6907 97.287 85.2131 96.8569 85.6402C96.4269 86.0672 95.7677 86.2808 94.8792 86.2808H93.5358V89.2668H92.3203V81.9077H94.8792ZM93.5358 85.3384H94.8792C95.3412 85.3384 95.6859 85.229 95.9134 85.0101C96.1408 84.7913 96.2545 84.486 96.2545 84.0942C96.2545 83.7025 96.1408 83.3971 95.9134 83.1783C95.6859 82.9595 95.3412 82.8501 94.8792 82.8501H93.5358V85.3384ZM105.458 89.2668L104.925 87.7632H101.822L101.289 89.2668H100.02L102.675 81.8971H104.082L106.737 89.2668H105.458ZM102.152 86.8208H104.594L103.379 83.3583L102.152 86.8208ZM111.985 82.7971C111.622 82.7971 111.327 82.8889 111.1 83.0724C110.872 83.256 110.758 83.5224 110.758 83.8719C110.758 84.2213 110.894 84.4878 111.164 84.6713C111.434 84.8548 111.761 84.989 112.145 85.0737C112.528 85.1584 112.912 85.2554 113.296 85.3649C113.68 85.4743 114.007 85.6772 114.277 85.9737C114.547 86.2702 114.682 86.6902 114.682 87.2338C114.682 87.7773 114.451 88.2644 113.989 88.695C113.527 89.1256 112.909 89.3409 112.134 89.3409C111.359 89.3409 110.73 89.1609 110.247 88.8009C109.763 88.4409 109.522 87.9432 109.522 87.3079H110.822C110.851 87.6326 110.972 87.8903 111.185 88.0809C111.398 88.2714 111.711 88.3667 112.123 88.3667C112.535 88.3667 112.861 88.2609 113.099 88.0491C113.337 87.8373 113.456 87.5867 113.456 87.2973C113.456 87.0079 113.383 86.782 113.237 86.6196C113.092 86.4573 112.903 86.3355 112.672 86.2543C112.441 86.1731 112.187 86.1008 111.91 86.0372C111.633 85.9737 111.354 85.8996 111.073 85.8149C110.792 85.7302 110.536 85.6208 110.305 85.4866C110.074 85.3525 109.886 85.1566 109.74 84.899C109.595 84.6413 109.522 84.3254 109.522 83.9513C109.522 83.3089 109.755 82.7918 110.22 82.4C110.686 82.0083 111.29 81.8124 112.033 81.8124C112.775 81.8124 113.369 81.9818 113.813 82.3206C114.257 82.6595 114.504 83.1501 114.554 83.7925H113.211C113.182 83.5101 113.061 83.2736 112.848 83.083C112.635 82.8924 112.347 82.7971 111.985 82.7971ZM120.217 82.7971C119.855 82.7971 119.56 82.8889 119.333 83.0724C119.105 83.256 118.991 83.5224 118.991 83.8719C118.991 84.2213 119.126 84.4878 119.397 84.6713C119.667 84.8548 119.994 84.989 120.377 85.0737C120.761 85.1584 121.145 85.2554 121.529 85.3649C121.913 85.4743 122.24 85.6772 122.51 85.9737C122.78 86.2702 122.915 86.6902 122.915 87.2338C122.915 87.7773 122.684 88.2644 122.222 88.695C121.76 89.1256 121.142 89.3409 120.367 89.3409C119.592 89.3409 118.963 89.1609 118.48 88.8009C117.996 88.4409 117.755 87.9432 117.755 87.3079H119.055C119.084 87.6326 119.205 87.8903 119.418 88.0809C119.631 88.2714 119.944 88.3667 120.356 88.3667C120.768 88.3667 121.094 88.2609 121.332 88.0491C121.57 87.8373 121.689 87.5867 121.689 87.2973C121.689 87.0079 121.616 86.782 121.47 86.6196C121.325 86.4573 121.136 86.3355 120.905 86.2543C120.674 86.1731 120.42 86.1008 120.143 86.0372C119.866 85.9737 119.587 85.8996 119.306 85.8149C119.025 85.7302 118.769 85.6208 118.538 85.4866C118.307 85.3525 118.119 85.1566 117.973 84.899C117.827 84.6413 117.755 84.3254 117.755 83.9513C117.755 83.3089 117.987 82.7918 118.453 82.4C118.919 82.0083 119.523 81.8124 120.265 81.8124C121.008 81.8124 121.602 81.9818 122.046 82.3206C122.49 82.6595 122.737 83.1501 122.787 83.7925H121.444C121.415 83.5101 121.294 83.2736 121.081 83.083C120.868 82.8924 120.58 82.7971 120.217 82.7971ZM130.242 81.8971V82.8395H127.363V85.0737H129.922V86.0055H127.363V88.3244H130.242V89.2668H126.147V81.8971H130.242ZM138.4 81.8971H139.615V89.2668H138.4L134.743 83.7713V89.2668H133.527V81.8971H134.743L138.4 87.382V81.8971ZM146.313 89.3303C145.303 89.3303 144.433 88.9774 143.701 88.2714C142.969 87.5655 142.602 86.6673 142.602 85.5766C142.602 84.486 142.969 83.586 143.701 82.8765C144.433 82.1671 145.328 81.8124 146.387 81.8124C147.176 81.8124 147.878 82.0047 148.493 82.3895C149.108 82.7742 149.554 83.3195 149.831 84.0254H148.371C147.972 83.2842 147.311 82.9136 146.387 82.9136C145.641 82.9136 145.032 83.1571 144.559 83.6442C144.086 84.1313 143.85 84.7754 143.85 85.5766C143.85 86.3778 144.086 87.022 144.559 87.5091C145.032 87.9961 145.62 88.2397 146.323 88.2397C147.027 88.2397 147.587 88.0544 148.003 87.6838C148.419 87.3132 148.669 86.8102 148.754 86.1749H145.972V85.2325H150.055V86.1749C149.941 87.0573 149.543 87.8038 148.861 88.4144C148.179 89.025 147.329 89.3303 146.313 89.3303ZM157.136 81.8971V82.8395H154.258V85.0737H156.817V86.0055H154.258V88.3244H157.136V89.2668H153.042V81.8971H157.136ZM161.638 86.2808V89.2668H160.422V81.9077H162.981C163.82 81.9077 164.467 82.1142 164.922 82.5271C165.376 82.9401 165.604 83.4642 165.604 84.0995C165.604 84.5937 165.453 85.0384 165.151 85.4337C164.849 85.829 164.385 86.0867 163.759 86.2067L165.721 89.2668H164.239L162.384 86.2808H161.638ZM161.638 82.8501V85.3384H162.981C163.443 85.3384 163.788 85.229 164.015 85.0101C164.243 84.7913 164.356 84.486 164.356 84.0942C164.356 83.7025 164.243 83.3971 164.015 83.1783C163.788 82.9595 163.443 82.8501 162.981 82.8501H161.638ZM175.161 86.2808V89.2668H173.945V81.9077H176.504C177.343 81.9077 177.99 82.1142 178.445 82.5271C178.9 82.9401 179.127 83.4642 179.127 84.0995C179.127 84.5937 178.976 85.0384 178.674 85.4337C178.372 85.829 177.908 86.0867 177.282 86.2067L179.244 89.2668H177.762L175.907 86.2808H175.161ZM175.161 82.8501V85.3384H176.504C176.966 85.3384 177.311 85.229 177.538 85.0101C177.766 84.7913 177.88 84.486 177.88 84.0942C177.88 83.7025 177.766 83.3971 177.538 83.1783C177.311 82.9595 176.966 82.8501 176.504 82.8501H175.161ZM182.477 89.2668V81.9077H183.692V89.2668H182.477ZM190.39 89.3303C189.38 89.3303 188.51 88.9774 187.778 88.2714C187.045 87.5655 186.679 86.6673 186.679 85.5766C186.679 84.486 187.045 83.586 187.778 82.8765C188.51 82.1671 189.405 81.8124 190.464 81.8124C191.253 81.8124 191.955 82.0047 192.57 82.3895C193.185 82.7742 193.631 83.3195 193.908 84.0254H192.447C192.049 83.2842 191.388 82.9136 190.464 82.9136C189.718 82.9136 189.109 83.1571 188.636 83.6442C188.163 84.1313 187.927 84.7754 187.927 85.5766C187.927 86.3778 188.163 87.022 188.636 87.5091C189.109 87.9961 189.697 88.2397 190.4 88.2397C191.104 88.2397 191.664 88.0544 192.08 87.6838C192.495 87.3132 192.746 86.8102 192.831 86.1749H190.049V85.2325H194.132V86.1749C194.018 87.0573 193.62 87.8038 192.938 88.4144C192.256 89.025 191.406 89.3303 190.39 89.3303ZM201.821 81.9077H203.037V89.2668H201.821V86.0161H198.335V89.2668H197.119V81.9077H198.335V85.0843H201.821V81.9077ZM206.045 82.8501V81.9077H211.216V82.8501H209.244V89.2668H208.028V82.8501H206.045ZM216.538 82.7971C216.176 82.7971 215.881 82.8889 215.653 83.0724C215.426 83.256 215.312 83.5224 215.312 83.8719C215.312 84.2213 215.447 84.4878 215.717 84.6713C215.988 84.8548 216.314 84.989 216.698 85.0737C217.082 85.1584 217.466 85.2554 217.85 85.3649C218.234 85.4743 218.561 85.6772 218.831 85.9737C219.101 86.2702 219.236 86.6902 219.236 87.2338C219.236 87.7773 219.005 88.2644 218.543 88.695C218.081 89.1256 217.462 89.3409 216.688 89.3409C215.913 89.3409 215.284 89.1609 214.8 88.8009C214.317 88.4409 214.075 87.9432 214.075 87.3079H215.376C215.405 87.6326 215.525 87.8903 215.739 88.0809C215.952 88.2714 216.265 88.3667 216.677 88.3667C217.089 88.3667 217.414 88.2609 217.653 88.0491C217.891 87.8373 218.01 87.5867 218.01 87.2973C218.01 87.0079 217.937 86.782 217.791 86.6196C217.645 86.4573 217.457 86.3355 217.226 86.2543C216.995 86.1731 216.741 86.1008 216.464 86.0372C216.187 85.9737 215.908 85.8996 215.627 85.8149C215.346 85.7302 215.09 85.6208 214.859 85.4866C214.628 85.3525 214.44 85.1566 214.294 84.899C214.148 84.6413 214.075 84.3254 214.075 83.9513C214.075 83.3089 214.308 82.7918 214.774 82.4C215.239 82.0083 215.844 81.8124 216.586 81.8124C217.329 81.8124 217.923 81.9818 218.367 82.3206C218.811 82.6595 219.058 83.1501 219.108 83.7925H217.764C217.736 83.5101 217.615 83.2736 217.402 83.083C217.189 82.8924 216.901 82.7971 216.538 82.7971Z" fill="#686867"/>
</g>
<defs>
<clipPath id="clip0_17_185">
<rect width="220" height="89.5057" fill="white" transform="translate(0 0.494324)"/>
</clipPath>
</defs>
</svg>
