<svg width="120" height="75" viewBox="0 0 120 75" fill="none" xmlns="http://www.w3.org/2000/svg">
<g clip-path="url(#clip0_17_166)">
<path fill-rule="evenodd" clip-rule="evenodd" d="M32.2157 7.90396C31.747 5.01011 30.5439 2.49808 28.0247 0.75H27.2356C26.1159 1.50311 25.26 2.47764 24.6333 3.66367C23.0194 6.71917 22.7427 9.94375 23.3666 13.277C24.1765 17.604 26.0835 21.5857 27.4515 25.7371C27.5557 26.0533 27.771 26.0933 28.0499 26.1171C28.3757 26.1447 28.3829 25.9226 28.4396 25.7133C29.2221 22.821 30.2159 19.9909 31.0787 17.1225C31.9831 14.1153 32.7288 11.0725 32.2157 7.90396Z" fill="#72D173"/>
<path fill-rule="evenodd" clip-rule="evenodd" d="M43.2851 9.04774C41.8217 8.96877 40.3601 8.79474 38.892 8.90653C36.544 9.08552 34.7913 10.165 33.756 12.2797C33.4903 12.822 33.2454 13.3769 33.0386 13.9433C31.935 16.9588 30.8647 19.9862 29.7372 22.993C29.5272 23.5532 29.4668 23.8428 30.1149 24.1493C30.5377 24.3491 30.6762 24.3389 30.9113 23.9787C31.4068 23.22 31.9218 22.4716 32.466 21.746C33.3616 20.5516 34.599 19.8607 36.0401 19.4895C38.6128 18.8265 40.651 17.5076 41.9013 15.0974C42.7833 13.3961 43.5335 11.6697 43.8111 9.70145C43.8057 9.40664 43.796 9.07499 43.2851 9.04774Z" fill="#72D173"/>
<path fill-rule="evenodd" clip-rule="evenodd" d="M25.3976 22.0695C24.3796 19.2075 23.4463 16.3158 22.3096 13.4957C21.8072 12.2477 21.2334 11.0441 20.1193 10.1807C18.7138 9.0916 17.0864 8.81321 15.335 8.88846C14.4142 8.84449 13.4812 8.99344 12.5416 9.03586C11.7534 9.07147 11.618 9.25573 11.7546 10.0454C12.0634 11.8263 12.761 13.4592 13.5999 15.0583C14.7551 17.2613 16.5378 18.6476 18.9348 19.3224C19.4177 19.4584 19.8999 19.6033 20.3705 19.7758C21.4641 20.1756 22.3767 20.832 23.0663 21.7583C23.6204 22.5027 24.1492 23.267 24.6579 24.0427C24.8767 24.3762 25.0045 24.3242 25.3621 24.1749C26.104 23.8643 26.047 23.4664 25.7366 22.9078C25.5912 22.6458 25.4987 22.3534 25.3976 22.0695Z" fill="#72D173"/>
<path fill-rule="evenodd" clip-rule="evenodd" d="M18.0194 33.7063C15.226 33.7902 12.7597 34.4981 10.623 35.83C8.48496 37.1631 6.97212 39.0155 6.08349 41.3891V61.5009H0.496094V28.8971H5.70228V36.4546C6.84526 34.2061 8.34709 32.3849 10.2103 30.9895C12.0722 29.5951 14.0613 28.8141 16.1782 28.6472H17.2576C17.5535 28.6472 17.8072 28.6686 18.0194 28.7095V33.7063Z" fill="black"/>
<path fill-rule="evenodd" clip-rule="evenodd" d="M25.1162 61.5009H30.7036V28.8971H25.1162V61.5009Z" fill="black"/>
<path fill-rule="evenodd" clip-rule="evenodd" d="M60.568 57.3786C62.2187 57.3786 63.7105 57.0349 65.0442 56.3478C66.3773 55.6609 67.5203 54.7452 68.4725 53.5998C69.425 52.4549 70.155 51.154 70.6628 49.6958C71.1711 48.2388 71.4249 46.74 71.4249 45.1988C71.4249 43.5752 71.1283 42.0243 70.5362 40.5457C69.9429 39.0683 69.1392 37.7769 68.1234 36.6733C67.1073 35.5706 65.9111 34.696 64.5358 34.0501C63.1602 33.4047 61.6682 33.0821 60.0603 33.0821C59.0442 33.0821 57.9966 33.2799 56.9172 33.6751C55.8381 34.0714 54.822 34.5917 53.8698 35.2367C52.9172 35.8827 52.0919 36.6525 51.3934 37.5478C50.6952 38.4437 50.2397 39.39 50.0288 40.3896V49.6958C50.4937 50.7793 51.0861 51.7882 51.8064 52.7256C52.5256 53.662 53.3507 54.4743 54.2824 55.1611C55.2129 55.8483 56.2077 56.3899 57.2666 56.785C58.3239 57.1814 59.4254 57.3786 60.568 57.3786ZM62.282 62.1252C59.5302 62.1252 57.1079 61.4598 55.0127 60.1266C52.9172 58.7944 51.2555 57.108 50.0288 55.0676V74.8043H44.4414V28.8969H49.3936V35.0181C50.7053 33.0195 52.4095 31.4061 54.5047 30.1774C56.5999 28.9498 58.9173 28.3348 61.457 28.3348C63.7426 28.3348 65.8378 28.7935 67.7425 29.7088C69.6473 30.6251 71.298 31.8638 72.6947 33.4252C74.0917 34.9868 75.1808 36.7885 75.9643 38.828C76.7469 40.869 77.1391 42.9924 77.1391 45.1988C77.1391 47.5312 76.7787 49.727 76.0597 51.7882C75.3395 53.8497 74.3237 55.6405 73.012 57.1597C71.6997 58.6802 70.1333 59.8876 68.3139 60.7825C66.4932 61.6775 64.4826 62.1252 62.282 62.1252Z" fill="black"/>
<path fill-rule="evenodd" clip-rule="evenodd" d="M113.488 43.0129C113.362 41.4726 112.97 40.046 112.314 38.7346C111.657 37.4225 110.832 36.3092 109.838 35.3929C108.843 34.4775 107.689 33.7588 106.377 33.2382C105.065 32.718 103.668 32.4573 102.187 32.4573C100.705 32.4573 99.3083 32.718 97.9966 33.2382C96.6843 33.7588 95.5306 34.4871 94.5365 35.4239C93.5415 36.3613 92.7369 37.4751 92.1237 38.7655C91.5099 40.0568 91.1397 41.4726 91.0132 43.0129H113.488ZM102.124 62.1254C99.6256 62.1254 97.34 61.6773 95.2665 60.7826C93.1924 59.8874 91.4145 58.6698 89.9335 57.1285C88.4515 55.5883 87.2987 53.7869 86.4734 51.7261C85.648 49.6646 85.2354 47.4895 85.2354 45.1989C85.2354 42.9092 85.648 40.7437 86.4734 38.7033C87.2987 36.6635 88.4622 34.8727 89.965 33.3315C91.4671 31.7918 93.256 30.5739 95.3301 29.678C97.4036 28.7831 99.6892 28.335 102.187 28.335C104.684 28.335 106.959 28.7936 109.012 29.709C111.065 30.6253 112.811 31.8435 114.25 33.3627C115.689 34.8832 116.8 36.6527 117.584 38.672C118.366 40.6923 118.758 42.7847 118.758 44.949C118.758 45.4076 118.747 45.8235 118.727 46.1982C118.705 46.5729 118.673 46.8649 118.631 47.0727H91.1397C91.2666 48.6966 91.6478 50.1753 92.2827 51.5074C92.9173 52.8403 93.743 53.9851 94.7588 54.9423C95.7749 55.9007 96.9276 56.6504 98.2189 57.1911C99.5098 57.7324 100.875 58.003 102.314 58.003C103.33 58.003 104.324 57.8683 105.298 57.5971C106.271 57.3267 107.181 56.9626 108.028 56.5039C108.875 56.0463 109.626 55.4842 110.282 54.8175C110.938 54.152 111.435 53.4026 111.774 52.569L116.6 53.8811C116.049 55.0891 115.298 56.1918 114.346 57.1911C113.393 58.1904 112.292 59.055 111.044 59.783C109.795 60.5123 108.409 61.0849 106.885 61.5008C105.362 61.9166 103.774 62.1254 102.124 62.1254Z" fill="black"/>
</g>
<defs>
<clipPath id="clip0_17_166">
<rect width="120" height="74.25" fill="white" transform="translate(0 0.75)"/>
</clipPath>
</defs>
</svg>
