<svg width="214" height="89" viewBox="0 0 214 89" fill="none" xmlns="http://www.w3.org/2000/svg">
<path fill-rule="evenodd" clip-rule="evenodd" d="M158.391 0.00688019C158.528 0.0736578 158.579 0.157132 158.585 0.205824C158.585 0.205824 158.617 0.361636 158.51 0.460412C158.485 0.483452 158.437 0.510808 158.375 0.545833C158.172 0.660961 157.823 0.858956 157.664 1.25896C155.795 6.01687 148.882 23.6239 144.494 35.1764C143.469 37.8798 142.491 40.601 141.56 43.3386C140.975 45.079 140.409 46.8291 140.237 48.6599C140.179 49.2929 140.2 49.9524 140.401 50.5617C140.495 50.8396 140.672 51.0818 140.908 51.2558C141.144 51.4299 141.427 51.5275 141.72 51.5355C143.046 51.5442 144.203 50.5536 145.228 49.6762C145.514 49.4314 145.79 49.1954 146.056 48.9924C146.464 48.6816 147.359 47.9707 148.373 47.1505C148.395 45.6418 148.715 44.1565 149.17 42.7167C150.037 39.9797 151 37.2748 152.06 34.6074C153.112 31.9521 155.833 25.4307 156.925 22.814L156.928 22.8064L156.936 22.7879C157.126 22.3332 157.265 21.9997 157.336 21.8292L163.165 19.4335C163.185 19.4295 163.211 19.4227 163.239 19.415C163.328 19.3912 163.446 19.3593 163.53 19.3751C163.726 19.4029 163.758 19.5768 163.706 19.7229C163.689 19.7754 163.659 19.8227 163.619 19.8606C163.455 20.0151 162.838 20.3782 162.838 20.3782C162.838 20.3782 161.725 23.0562 161.174 24.3974L161.148 24.4615L161.147 24.462C159.58 28.2676 158.012 32.0737 156.657 35.954C156.406 36.673 156.168 37.3963 155.93 38.1195L155.93 38.1198C155.679 38.8813 155.429 39.6427 155.163 40.3989C155.124 40.5089 155.085 40.6189 155.046 40.729L155.042 40.7411L155.042 40.7414C154.579 42.0558 154.113 43.3787 153.894 44.7534C153.731 45.762 153.608 47.0447 154.104 47.9879C154.532 48.7962 155.548 48.8087 156.343 48.5263C157.179 48.2302 162.886 42.8243 165.519 40.3301C165.658 40.1989 165.788 40.0758 165.908 39.9619C165.694 36.7305 166.407 33.3264 167.403 30.4157C168.532 27.12 170.13 23.9731 172.325 21.2185C173.419 19.8373 174.646 18.5675 175.988 17.4275C178.281 15.5007 182.051 14.4628 184.507 16.6359C185.866 17.8448 186.915 19.62 186.629 21.4634C186.365 23.2024 185.159 24.6673 183.958 25.9152C182.645 27.2817 181.324 28.6403 180.003 29.9991C178.423 31.6243 176.842 33.2495 175.276 34.8884C175.204 34.961 175.132 35.0339 175.06 35.1073C174.126 36.0532 173.126 37.067 172.551 38.251C172.189 38.9911 172.015 39.9023 172.021 40.7203C172.028 42.0726 172.911 43.6864 174.187 44.2623C175.957 45.0623 177.622 43.4262 178.794 42.2451C181.784 39.229 184.28 36.2003 186.698 32.7502C188.655 29.9608 193.693 22.7349 194.196 21.8821C194.412 21.5212 194.665 21.1766 194.916 20.8345C195.024 20.6874 195.132 20.5408 195.236 20.3935C195.673 19.7814 196.124 19.1804 196.623 18.6128C197.843 17.2216 199.298 16.0766 200.857 15.0611C201.768 14.4684 203.69 13.4473 203.69 13.4473L208.664 13.7297C208.664 13.7297 208.492 14.083 208.405 14.2528C208.163 14.7297 207.901 15.2018 207.638 15.6751C206.972 16.8751 206.301 18.0833 205.947 19.4002C205.75 20.1741 205.698 20.9779 205.793 21.7708C205.88 22.5081 206.031 23.2362 206.246 23.9467C206.513 24.8551 206.854 25.7441 207.215 26.6205C207.35 26.9499 207.489 27.2787 207.627 27.6077C208.134 28.8103 208.643 30.0164 208.995 31.2671H208.997C209.466 32.9237 209.41 34.7953 208.995 36.5453C209.241 36.7355 209.486 36.9256 209.732 37.1156C213.275 39.8549 214.103 43.6431 213.111 47.2533C210.383 57.2011 197.914 59.1549 188.775 60.587C188.187 60.6793 187.612 60.7693 187.055 60.8592C179.43 62.0905 171.77 63.0963 164.101 64.059C158.047 64.8186 152.001 65.6352 145.963 66.5159L144.77 66.69C124.156 69.6992 102.857 72.8084 83.2702 79.8825C78.8424 81.481 74.5158 83.3383 70.3792 85.5113C68.8817 86.2904 67.4065 87.112 65.9555 87.9751C65.932 87.9894 65.8334 88.0577 65.6963 88.1527L65.6959 88.1529C65.26 88.4548 64.4343 89.0266 64.3816 88.999C64.3774 88.9921 51.675 88.999 51.675 88.999C51.885 88.8777 53.3362 87.9905 54.9066 87.0305L54.9087 87.0292L54.9112 87.0277C56.8131 85.865 58.8881 84.5966 59.1439 84.4526C60.9811 83.4168 62.8325 82.4067 64.6978 81.4226C69.6716 78.8037 74.8182 76.5293 80.1016 74.6154C89.652 71.1639 99.5685 68.7209 109.56 66.8025C123.083 64.2051 136.777 62.5078 150.45 60.8592C151.273 60.76 152.095 60.661 152.917 60.562C166.21 58.9613 179.513 57.3594 192.676 54.9383C193.017 54.8759 193.358 54.8143 193.7 54.7526C197.39 54.0863 201.148 53.4078 204.428 51.6036C206.674 50.371 208.487 48.3774 209.242 46.0249C209.919 43.9283 209.909 40.8232 208.327 39.1245C208.305 39.1012 208.248 39.0344 208.169 38.9401C208.155 38.9697 208.141 38.9992 208.127 39.0287C207.492 40.3614 206.66 41.594 205.379 42.3787C204.088 43.1689 202.31 43.6182 200.811 43.781C198.613 44.0203 195.884 43.5695 194.465 41.6733C194.042 41.1043 193.761 40.2362 193.658 39.5504C193.377 37.643 194.16 35.5632 195.508 34.1706C197.02 32.6041 199.395 32.3217 201.513 32.5151C202.388 32.5899 203.243 32.8187 204.039 33.1912C204.062 33.202 204.097 33.2178 204.141 33.2374C204.413 33.3586 205.019 33.6285 205.038 33.82C204.867 32.0347 204.295 30.814 203.677 29.4966C203.295 28.6818 202.896 27.83 202.564 26.7847C201.712 24.1052 201.048 21.167 201.773 18.3846C201.775 18.3777 201.778 18.3574 201.782 18.3311C201.793 18.2574 201.812 18.1361 201.83 18.1259C200.106 19.1331 198.68 20.7441 197.569 22.3329C196.92 23.2585 196.279 24.1901 195.638 25.1211L195.497 25.3253C194.912 26.1741 194.323 27.0183 193.734 27.8635C193.533 28.1516 193.332 28.4397 193.131 28.7282C192.381 29.8036 191.627 30.8748 190.864 31.9419C190.282 32.7635 189.689 33.5765 189.083 34.3807C188.509 35.1409 187.922 35.8922 187.335 36.6433C187.002 37.0702 186.669 37.497 186.338 37.9254C185.554 38.9156 184.761 39.9002 183.969 40.8847C183.459 41.5186 182.949 42.1524 182.441 42.7877C181.865 43.5041 181.248 44.2095 180.583 44.8675C178.858 46.5731 176.807 47.9643 174.348 48.4512C171.074 49.0982 167.959 47.0336 166.804 44.1177C166.665 43.7662 166.542 43.4081 166.436 43.0444C166.246 43.2098 165.988 43.4347 165.681 43.7035L165.68 43.7039C163.621 45.5017 159.317 49.2607 157.829 50.2973C155.974 51.5967 153.388 52.9851 151.018 52.2631C150.485 52.1031 149.85 51.7692 149.478 51.3546C149.031 50.856 148.763 50.2472 148.603 49.6032C148.104 50.0265 147.763 50.3134 147.744 50.3294C147.45 50.5699 147.155 50.8169 146.858 51.066C145.613 52.1078 144.325 53.1861 142.94 53.9799C142.463 54.2547 141.968 54.4965 141.457 54.7033C139.924 55.3224 137.871 55.6187 136.425 54.6226C136.026 54.3416 135.744 53.9228 135.517 53.5055C135.458 53.3999 135.414 53.2769 135.37 53.1539C135.317 53.0062 135.265 52.8586 135.187 52.7417C135.24 52.827 134.246 53.7381 134.09 53.8809L134.075 53.895C133.459 54.4626 132.8 54.9871 132.105 55.4601C130.096 56.8388 127.403 57.9629 124.935 57.1337C123.735 56.7331 122.931 55.7509 122.432 54.6574C121.26 52.0878 121.403 49.1594 121.939 46.4674C122.183 45.2465 122.48 44.0368 122.83 42.8419C122.85 42.771 122.871 42.7002 122.893 42.6295C122.678 42.6794 122.409 42.7438 122.072 42.8265C121.28 43.0213 119.053 43.9293 118.992 43.9543L118.992 43.9548L118.991 43.9553L118.796 44.4459L118.749 44.563C118.116 46.167 117.482 47.7707 116.69 49.3095C115.276 52.0571 113.38 54.5112 111.425 56.9124C109.571 59.1912 107.266 61.2877 104.301 62.0459C103.54 62.2421 102.556 62.2351 101.779 62.1294C98.3537 61.6592 97.0988 57.7583 96.9795 54.8701C96.9282 53.7099 96.9434 52.5399 97.0308 51.3852C97.1196 50.2211 97.2869 49.0754 97.5292 47.9501C97.3147 47.99 96.8943 48.0835 96.0864 48.2828C95.2966 48.4778 93.0917 49.3747 93.005 49.41L93.0051 49.4111L93.002 49.4119C92.9784 49.4714 92.9552 49.531 92.932 49.5905C92.8912 49.6951 92.8505 49.7995 92.8082 49.9022L92.7448 50.0628C92.1171 51.6524 91.4893 53.2423 90.7031 54.7658C89.2901 57.5148 87.3944 59.9717 85.4391 62.3729C83.5823 64.6475 81.2775 66.744 78.3127 67.5036C77.5528 67.6984 76.5654 67.6914 75.7916 67.5857C72.365 67.1155 71.1086 63.2132 70.9894 60.3264C70.9408 59.1662 70.9547 57.9962 71.0421 56.8415C71.3527 52.7499 72.6382 48.8894 74.7308 45.3307C75.3799 44.245 76.0959 43.2009 76.8746 42.2046C77.2893 41.6732 77.7122 41.1473 78.1449 40.6326C79.6426 38.8574 81.2928 37.1838 83.1787 35.7912C84.6195 34.7297 86.2808 33.8408 88.0184 33.3246C89.0807 33.0102 90.4286 33.0589 91.3882 33.6724C92.4296 34.336 93.2852 35.6994 93.6277 36.8471C94.0123 38.1497 94.2778 39.4848 94.421 40.8357C94.5513 42.2127 94.5281 43.5999 94.3516 44.9717C94.3086 45.3112 94.2573 45.652 94.2019 45.9929L94.2008 46.0035C94.1942 46.0673 94.1635 46.3637 94.1353 46.3727L98.2968 45.156C98.9089 43.3314 99.7222 41.568 100.72 39.8744C101.36 38.7865 102.09 37.75 102.865 36.7484C103.278 36.2169 103.698 35.6911 104.134 35.1763C105.63 33.4011 107.28 31.7275 109.166 30.3363C110.607 29.2707 112.27 28.3845 114.007 27.8683C115.071 27.5539 116.416 27.6026 117.377 28.2161C118.417 28.8797 119.273 30.2431 119.615 31.3909C120.001 32.693 120.267 34.0282 120.408 35.3794C120.539 36.7564 120.515 38.1437 120.339 39.5155C120.297 39.8563 120.246 40.1958 120.191 40.5352C120.189 40.541 120.187 40.5642 120.183 40.5964L120.183 40.5974L120.182 40.5982C120.17 40.7056 120.145 40.91 120.124 40.9164L123.937 39.8017C124.758 37.9054 125.776 36.0938 126.879 34.3194C127.45 33.3971 128.066 32.503 128.723 31.64C130.226 29.6469 131.943 27.8264 133.844 26.2115C134.326 25.8011 134.829 25.4046 135.356 25.0499C137.34 23.7088 139.676 23.1078 142.062 23.7366C142.338 23.8061 143.825 24.5157 143.624 25.0443C143.506 25.4088 152.173 2.46235 152.173 2.46235L157.437 0.325465C157.437 0.325465 157.814 0.150175 158.098 0.0569651L158.147 0.0374884L158.145 0.0430528C158.256 0.00827275 158.352 -0.0112054 158.391 0.00688019ZM135.924 44.4571C136.064 44.0347 136.197 43.6302 136.328 43.2537C136.825 41.8332 139.142 36.0099 140.806 31.8267C141.806 29.3116 142.571 27.3894 142.563 27.3732C142.274 26.6831 141.409 26.1044 140.677 25.9764C139.89 25.8401 139.033 26.1197 138.346 26.4675C137.174 27.0588 136.193 27.963 135.35 28.9272C134.785 29.5763 134.254 30.2542 133.758 30.9583C132.264 33.0813 130.943 35.322 129.809 37.6583C129.515 38.2635 129.235 38.8756 128.971 39.4919C128.163 41.402 127.508 43.3748 127.21 45.4226C127.107 46.0657 127.055 46.7161 127.056 47.3675C127.064 48.4882 127.287 49.5968 127.714 50.6326C128.051 51.4284 128.804 52.2631 129.738 52.4203C130.522 52.5525 131.402 52.3536 132.019 51.8527C134.018 50.2323 135.079 47.0161 135.924 44.4571ZM80.8136 16.3861C81.2121 16.2092 81.8426 15.9292 82.0472 16.0112L86.9978 18.546C86.8355 18.4792 83.2217 19.6131 82.5367 19.9929C80.2389 21.2714 78.64 23.5209 77.4196 25.7385C75.7999 28.6865 74.6781 31.8626 73.6602 35.0484C73.3697 35.9572 73.0798 36.8661 72.79 37.7748C70.8596 43.8277 68.9302 49.8772 66.807 55.8719C66.535 56.6398 66.2755 57.4123 66.0158 58.1853C65.8981 58.5355 65.7804 58.8858 65.6615 59.2358C65.2642 60.4147 64.8929 61.603 64.5215 62.7916C64.4638 62.9762 64.4061 63.1609 64.3483 63.3454C62.7813 68.3468 61.0618 73.2939 56.9681 76.9055C52.7982 80.5852 45.6885 81.6439 42.033 76.6133C41.1294 75.3634 40.4474 73.9666 40.0167 72.4842C39.9964 72.4136 39.9714 72.3327 39.9441 72.2446C39.7855 71.7322 39.5507 70.9734 39.7117 70.5366L39.6617 70.6687C39.3581 71.4944 39.0269 72.3096 38.6688 73.1131C38.0004 74.61 37.3098 76.1194 36.4847 77.5454C34.0233 81.8122 29.5344 85.9677 24.0735 84.6183C23.0931 84.3734 21.6536 83.6055 20.988 83.0462C17.5974 80.1943 17.6599 75.0176 17.9691 70.7703C18.3255 65.8273 19.8065 61.0207 21.4013 56.3407C22.6493 52.6805 24.2163 49.1246 25.8388 45.6049C26.4772 44.2182 27.1322 42.8379 27.7874 41.4574C28.201 40.5858 28.6146 39.7141 29.0241 38.8408C29.6777 37.4433 30.3402 36.05 31.0026 34.6567C31.5378 33.5313 32.0729 32.4059 32.6033 31.2783C33.0768 30.2736 33.5539 29.2716 34.031 28.2696C34.5403 27.2001 35.0495 26.1306 35.5542 25.0582C35.7774 24.5839 36.1661 23.815 36.5494 23.0567C36.9069 22.3494 37.2598 21.6513 37.4693 21.2102C37.4376 21.2749 37.2495 21.3525 37.1257 21.4036C37.0871 21.4196 37.0547 21.4329 37.0353 21.4425C35.5515 22.1743 33.9581 22.7238 32.3758 23.2149C29.3936 24.1382 26.3672 24.9113 23.308 25.5312C22.3022 25.7356 21.2883 25.9092 20.2742 26.0828C18.4025 26.4033 16.5301 26.7239 14.7061 27.2382C11.7136 28.0855 9.80541 29.3876 7.83903 31.7666C5.5218 34.5713 4.99623 38.2677 6.98064 41.3659C8.78062 44.1733 12.5331 44.535 15.6214 44.2206C15.6543 44.2171 15.6881 44.2133 15.7224 44.2094C15.9853 44.1799 16.281 44.1467 16.5116 44.1983C16.4274 44.2778 16.3591 44.3693 16.2909 44.4607C16.2253 44.5484 16.1598 44.6361 16.0804 44.7131C15.7728 45.0063 15.4348 45.2656 15.0722 45.4866C14.2996 45.9617 13.4696 46.3357 12.6024 46.5996C10.8593 47.1421 8.97199 47.3508 7.1526 47.138C5.33736 46.9293 3.51659 46.0806 2.30874 44.7312C1.70413 44.0537 1.30059 43.2482 1.04266 42.394C0.432497 40.3726 0.350678 38.379 0.727869 36.3102C0.955285 35.1044 1.29801 33.9234 1.75128 32.7836C2.47571 30.9275 3.58348 29.2463 5.00177 27.8504C6.29143 26.5955 8.03455 26.0474 9.79293 25.5451C12.0963 24.8888 14.5065 24.7312 16.9141 24.5738C18.4258 24.4749 19.9366 24.3761 21.4193 24.1539C25.7916 23.4973 30.0753 22.3454 34.2327 20.8846C35.2935 20.509 36.3405 20.1028 37.3861 19.6938C37.5584 19.6265 37.7313 19.5612 37.9039 19.496C38.1382 19.4076 38.3721 19.3192 38.6037 19.2263C42.6709 17.7809 46.6051 16.3354 46.6051 16.3354C46.5937 16.3402 46.581 16.373 46.5714 16.3977C46.567 16.4091 46.5633 16.4187 46.5607 16.423L44.3974 20.8916C43.4947 22.7538 42.594 24.6177 41.6931 26.4818C41.1175 27.673 40.5418 28.8643 39.9654 30.0554C38.9783 32.096 37.9952 34.1376 37.0119 36.1796C36.3541 37.5456 35.6962 38.9118 35.037 40.278C34.2071 42.0009 33.3815 43.726 32.5603 45.4532C31.34 48.0116 30.1377 50.5756 29.0269 53.1827C27.0563 57.7973 25.3063 62.2241 23.8641 67.0154C23.1763 69.297 22.6701 71.3824 22.5217 73.7655C22.4566 74.7769 22.5592 75.8662 22.7173 76.8679C23.0501 78.9881 24.3051 81.5729 26.822 81.8122C28.9576 82.0167 31.2595 80.243 32.5908 78.7989C34.3677 76.8707 35.528 74.384 36.621 72.0416C36.6566 71.9654 36.692 71.8895 36.7274 71.8137C37.9588 69.1787 39.0308 66.4729 40.0458 63.7531C42.6913 56.6688 45.2924 49.568 47.849 42.451C48.0985 41.7566 48.3506 41.0629 48.6027 40.3691C49.2644 38.5487 49.9261 36.728 50.5406 34.8926C50.5448 34.8801 56.5701 32.5526 56.5701 32.5526C56.5701 32.5526 50.058 51.0278 49.5782 52.3772C49.4546 52.7255 49.3242 53.0896 49.1895 53.4655C48.2658 56.0446 47.1413 59.1844 46.6051 61.6565C46.5809 61.7678 46.5568 61.8791 46.5326 61.9903C46.2817 63.1436 46.0321 64.2913 45.8563 65.4587C45.5123 67.7639 45.0741 71.5925 45.9991 73.8114C46.7396 75.588 48.2595 76.8929 50.3923 76.9333C52.7539 76.9792 54.6883 74.6517 55.7839 72.8849C57.0063 70.9259 57.709 68.7392 58.4084 66.5629C58.5523 66.1148 58.6962 65.6672 58.8444 65.2222C59.7218 62.5956 60.5212 59.9451 61.3208 57.2942C62.0997 54.7121 62.8786 52.1295 63.7298 49.5684C64.1517 48.3007 64.5728 47.0325 64.994 45.7641C66.9194 39.9654 68.8461 34.163 70.8521 28.3915C72.3775 23.9995 74.4382 19.2625 79.0213 17.1437C79.5191 16.9127 80.0281 16.6957 80.5426 16.5023C80.6031 16.4796 80.6987 16.4372 80.8136 16.3861ZM175.449 24.7772C174.735 25.9194 173.451 28.45 172.835 30.5034C172.329 32.1784 172.411 33.539 172.411 33.539C174.345 31.5021 176.28 29.4668 178.217 27.433C178.554 27.0795 178.933 26.7118 179.321 26.3353C180.874 24.8271 182.574 23.1763 182.342 21.7179C182.237 21.0502 182.04 19.9873 180.554 20.0054C179.068 20.0262 176.74 22.6987 175.449 24.7772ZM198.784 39.2791C199.008 39.9218 199.88 40.6967 200.524 40.9263C203.225 41.8876 205.024 38.4944 204.882 36.3575C204.849 35.8108 203.26 35.2446 202.816 35.0971C201.375 34.6158 199.874 35.0637 199.08 36.3186C198.607 37.0601 198.501 38.4694 198.784 39.2791ZM113.376 41.3463C111.418 37.7147 117.45 34.1475 117.54 34.0946C117.45 33.3267 117.313 32.5639 117.122 31.811C116.858 30.7801 116.175 29.8397 114.954 29.8647C114.108 29.8813 113.359 30.3349 112.662 30.7576L112.652 30.7634C111.145 31.6733 109.968 32.9852 108.814 34.272C107.876 35.3168 106.961 36.4089 106.24 37.604C104.659 40.218 103.587 42.7069 102.884 45.5157C102.385 47.5149 102.11 49.6044 102.038 51.6606C102.012 52.3561 102.064 53.0524 102.192 53.7363C102.254 54.0616 102.334 54.383 102.432 54.699C102.614 55.2805 103.156 55.9817 103.636 56.3615C106.04 58.2521 108.916 55.6784 110.514 54.0827C111.076 53.5193 111.604 52.9225 112.103 52.3061C112.758 51.502 113.364 50.6617 113.905 49.7825C115.028 47.9529 115.865 45.9692 116.504 43.933C115.441 43.6568 114.247 42.959 113.376 41.3463ZM167.008 9.18319C166.606 8.74127 166.068 8.44736 165.48 8.34847C164.37 8.16205 162.993 8.46254 162.146 9.34317C161.693 9.81201 161.279 10.5939 161.188 11.2157C161.102 11.8 161.193 12.7502 161.547 13.2163C162.238 14.1247 163.642 14.1971 164.707 13.7672C166.003 13.2455 167.206 12.0338 167.453 10.6787C167.563 10.0986 167.362 9.58246 167.008 9.1818V9.18319ZM91.5518 39.5511C91.446 39.6134 85.4329 43.1759 87.3889 46.8026C88.2593 48.4153 89.4535 49.1131 90.5171 49.3892C89.8779 51.4248 89.0393 53.4089 87.9172 55.2388C87.3764 56.1194 86.7662 56.9583 86.1144 57.7624C85.6166 58.3787 85.0883 58.9756 84.5253 59.5376C82.9291 61.1347 80.0517 63.7084 77.6485 61.8192C77.1673 61.438 76.6264 60.7382 76.4448 60.1567C76.1444 59.1728 76.0108 58.1452 76.0496 57.1169C76.1217 55.0607 76.3962 52.9711 76.8982 50.972C77.5999 48.1632 78.6719 45.6743 80.2513 43.0602C80.9738 41.8652 81.8891 40.7731 82.8237 39.7283L82.8573 39.691L82.8573 39.691C84.0031 38.4188 85.1722 37.1207 86.665 36.2183L86.6841 36.2067C87.379 35.7871 88.1233 35.3375 88.9669 35.321C90.1859 35.2959 90.8709 36.2392 91.133 37.2659C91.325 38.0192 91.462 38.7825 91.5518 39.5511Z" fill="black"/>
</svg>
