<svg width="161" height="140" viewBox="0 0 161 140" fill="none" xmlns="http://www.w3.org/2000/svg">
<path d="M114.739 33.1478H83.0362H82.7826C82.2754 33.1478 82.2754 32.8941 82.2754 32.6405V0.937627C82.2754 0.430381 82.529 0.176758 82.7826 0.176758H83.5435L84.558 0.684004C88.3623 15.6478 100.029 27.0608 114.993 31.1188C115.5 31.1188 115.5 31.3724 115.5 31.626V32.6405C115.5 33.1478 115.246 33.1478 114.739 33.1478Z" fill="black"/>
<path d="M84.0507 70.1768H83.0362C82.529 70.1768 82.529 69.9231 82.529 69.4159V37.713L83.0362 36.9521H114.739C115.246 36.9521 115.5 37.4594 115.5 37.713V38.4739L114.993 39.2347C100.029 43.0391 88.6159 54.7057 84.558 69.6695L84.0507 70.1768Z" fill="black"/>
<path d="M77.9638 70.1768H77.2029L76.442 69.6695C72.6377 54.7057 60.971 43.0391 46.0072 39.2347C45.5 39.2347 45.5 38.9811 45.5 38.7275V37.713C45.5 37.4594 45.7536 36.9521 46.2609 36.9521H77.9638C78.471 36.9521 78.471 37.4594 78.471 37.713V69.4159C78.471 69.9231 78.2174 70.1768 77.9638 70.1768Z" fill="black"/>
<path d="M77.9638 33.1478H46.2609C45.7536 33.1478 45.5 32.8941 45.5 32.6405V31.8797L46.0072 31.1188C60.7174 27.3144 72.3841 15.3941 76.442 0.684004C76.442 0.176758 76.6957 0.176758 76.9493 0.176758H77.9638C78.471 0.176758 78.471 0.430381 78.471 0.937627V32.6405C78.471 33.1478 78.2174 33.1478 77.9638 33.1478Z" fill="black"/>
<g clip-path="url(#clip0_1210_17623)">
<path d="M25.7055 127.398C24.2896 132.495 20.0418 135.893 13.9533 135.893C6.16569 135.893 0.785156 130.371 0.785156 122.017C0.785156 113.239 7.15684 106.867 16.3604 106.867C19.9002 106.867 22.4489 107.716 23.8648 108.283L24.7144 116.354H24.148C20.8914 111.256 18.0595 108 15.6524 108C12.3958 108 9.8471 111.964 9.8471 118.336C9.8471 126.407 14.0949 129.522 18.9091 129.522C21.5993 129.522 24.0064 128.531 25.4223 127.256H25.7055V127.398ZM47.9356 121.451C47.9356 113.522 46.3781 107.858 42.2719 107.858C38.1657 107.858 36.6082 113.38 36.6082 121.309C36.6082 129.239 38.3073 134.619 42.2719 134.619C46.2365 134.619 47.9356 129.239 47.9356 121.309V121.451ZM27.263 121.309C27.263 113.522 34.0595 106.867 42.2719 106.867C50.4843 106.867 57.2807 113.663 57.2807 121.451C57.2807 129.239 50.4843 135.752 42.2719 135.752C34.0595 135.752 27.263 129.239 27.263 121.451V121.309ZM71.7232 135.044H59.971V134.761C60.8206 131.929 61.3869 129.805 61.3869 124.991V118.761C61.3869 114.513 60.5374 112.247 58.5551 109.84L70.0241 106.442V112.106H70.3073C71.7232 109.84 74.6967 106.725 79.6524 106.725C84.6082 106.725 88.148 109.84 88.148 114.513V124.991C88.148 129.663 88.4312 132.07 89.4224 134.761H77.6701C78.6613 131.929 79.0861 129.522 79.0861 125.132V115.079C79.0861 112.672 77.9533 110.831 75.2631 110.831C73.1392 110.831 71.44 112.247 70.3073 113.663V124.991C70.3073 129.663 70.7321 132.07 71.7232 134.761V135.044ZM93.9533 128.106V108.991H90.8383V108.566L102.166 101.345H102.874V107.858H122.98V108.991H102.874V127.823C102.874 131.221 104.714 132.212 106.838 132.212C108.821 132.212 110.095 131.362 110.095 131.362H110.237C108.962 133.628 105.989 135.752 101.599 135.752C97.0684 135.752 93.9533 133.628 93.9533 128.106Z" fill="black"/>
<path d="M112.925 135.044V134.761C113.774 131.929 114.341 129.805 114.341 124.991V118.761C114.341 114.513 114.482 111.115 112.5 108.849V108.708L122.978 107.858V113.38C125.385 110.973 128.075 106.584 132.889 106.867L131.898 116.354H131.615C130.178 114.529 128.104 113.315 125.81 112.956C124.96 112.956 123.969 113.664 123.261 114.655V125.133C123.261 129.805 123.686 132.212 124.677 134.902H112.925V135.044ZM147.615 130.513V120.885C143.65 122.018 141.527 124.708 141.527 127.398C141.527 129.522 142.801 130.938 145.208 130.938C146.199 130.938 146.907 130.796 147.615 130.371V130.513ZM147.757 131.504C146.199 133.77 143.509 135.752 139.969 135.752C136.571 135.752 133.597 133.345 133.597 129.239C133.597 123.15 141.243 121.026 147.615 119.752V116.92C147.615 113.522 146.199 111.964 142.235 111.964C140.111 111.964 137.42 112.389 135.013 113.38L134.73 113.097C137.562 109.841 141.81 106.867 147.898 106.867C153.845 106.867 156.535 109.841 156.535 114.23V128.531C156.535 129.947 157.243 131.079 158.943 131.079C159.651 131.079 160.358 130.938 161.066 130.371L161.208 130.655C160.358 132.495 158.376 135.752 153.704 135.752C150.305 135.752 148.323 133.911 147.757 131.504Z" fill="black"/>
<path d="M101.031 108.85H122.978V107.434H101.031V108.85Z" fill="black"/>
</g>
<defs>
<clipPath id="clip0_1210_17623">
<rect width="160" height="39.646" fill="white" transform="translate(0.5 100.177)"/>
</clipPath>
</defs>
</svg>
