<svg width="161" height="58" viewBox="0 0 161 58" fill="none" xmlns="http://www.w3.org/2000/svg">
<g clip-path="url(#clip0_290_5034)">
<path fill-rule="evenodd" clip-rule="evenodd" d="M30.4621 21.3027L17.8321 42.0524L5.20448 21.3027H0.5V55.9693H7.18527V36.6538L15.5064 50.2741H20.1621L28.4818 36.6538V55.9693H35.1666V21.3027H30.4621Z" fill="black"/>
<path fill-rule="evenodd" clip-rule="evenodd" d="M117.301 55.9693H124.234V21.3027H117.301V55.9693Z" fill="black"/>
<path fill-rule="evenodd" clip-rule="evenodd" d="M41.0352 21.3029H68.7685V14.3696H41.0352V21.3029Z" fill="#00A0FF"/>
<path fill-rule="evenodd" clip-rule="evenodd" d="M68.7656 14.903H96.4989V7.96973H68.7656V14.903Z" fill="#00DC82"/>
<path fill-rule="evenodd" clip-rule="evenodd" d="M96.5 7.96945H124.233V1.03613H96.5V7.96945Z" fill="#C85AFF"/>
<path fill-rule="evenodd" clip-rule="evenodd" d="M153.548 21.3027L143.944 44.9748L134.388 21.3027H127.434L141.592 55.9693H146.342L160.5 21.3027H153.548Z" fill="black"/>
<path fill-rule="evenodd" clip-rule="evenodd" d="M63.6106 42.1015C63.6106 47.0379 59.9005 50.9045 55.1651 50.9045C50.4291 50.9045 46.719 47.0379 46.719 42.1015C46.719 37.1676 50.4291 33.3005 55.1651 33.3005C59.9005 33.3005 63.6106 37.1676 63.6106 42.1015ZM55.1651 27.1694C46.5002 27.1694 39.9648 33.5892 39.9648 42.1015C39.9648 50.6163 46.5002 57.036 55.1651 57.036C63.8318 57.036 70.3648 50.6163 70.3648 42.1015C70.3648 33.5892 63.8318 27.1694 55.1651 27.1694Z" fill="black"/>
<path fill-rule="evenodd" clip-rule="evenodd" d="M68.7656 21.3027V27.9904H77.678V55.9693H84.3474V27.9904H97.4546V55.9693H104.125V27.9904H113.032V21.3027H68.7656Z" fill="black"/>
</g>
<defs>
<clipPath id="clip0_290_5034">
<rect width="160" height="56.6666" fill="white" transform="translate(0.5 0.666504)"/>
</clipPath>
</defs>
</svg>
