<svg width="180" height="160" xmlns="http://www.w3.org/2000/svg"><defs><linearGradient x1="0%" y1="10.494%" y2="85.357%" id="a"><stop stop-color="#009DFF" offset="0%"/><stop stop-color="#013BBD" offset="100%"/></linearGradient></defs><g fill="none" fill-rule="evenodd"><path d="M0 0h180v160H0z" fill="url(#a)"/><g fill="#FFF" fill-rule="nonzero"><path d="M68.767 62h4.436a.7.7 0 0 1 .7.7v33.017a.7.7 0 0 1-.7.7h-4.436a.7.7 0 0 1-.7-.7V62.7a.7.7 0 0 1 .7-.7zm9.967 4.326h4.436a.7.7 0 0 1 .7.7v5.824h5.896a.933.933 0 0 1 .75 1.488l-2.39 3.231c-.22.297-.568.473-.938.473H83.87V88.25c0 1.167.218 2.09.656 2.77.438.681 1.305 1.022 2.602 1.022a9.45 9.45 0 0 0 1.702-.17c.164-.03.34-.079.529-.144a.7.7 0 0 1 .93.66v2.091c0 1.12-.796 2.083-1.897 2.292-.12.023-.242.043-.364.059-.892.113-1.678.17-2.359.17-1.556 0-2.829-.17-3.818-.51-.989-.34-1.767-.86-2.334-1.556-.567-.697-.957-1.564-1.167-2.6-.211-1.038-.316-2.237-.316-3.598v-21.71a.7.7 0 0 1 .7-.7zm17.695 20.466c.194 1.75.875 3.11 2.042 4.083 1.167.972 2.578 1.458 4.231 1.458 1.46 0 2.683-.3 3.672-.899.57-.345 1.295-.955 2.176-1.83a.7.7 0 0 1 .915-.061l3.263 2.465a.467.467 0 0 1 .045.706c-1.743 1.701-3.138 2.773-4.186 3.217a13.474 13.474 0 0 1-5.301 1.07c-1.75 0-3.404-.293-4.96-.876-1.557-.583-2.902-1.41-4.037-2.48-1.135-1.069-2.035-2.357-2.7-3.864-.664-1.507-.996-3.184-.996-5.031 0-1.847.332-3.524.997-5.031.664-1.507 1.564-2.795 2.699-3.865 1.135-1.07 2.48-1.896 4.036-2.479 1.557-.583 3.21-.875 4.96-.875 1.622 0 3.105.284 4.45.85a9.543 9.543 0 0 1 3.454 2.456c.956 1.069 1.702 2.39 2.237 3.961.535 1.572.802 3.379.802 5.42v.905a.7.7 0 0 1-.7.7h-17.1.001zm11.963-4.375c-.032-1.718-.567-3.07-1.605-4.06-1.037-.988-2.48-1.482-4.328-1.482-1.75 0-3.137.502-4.158 1.507-1.021 1.005-1.645 2.35-1.872 4.035h11.963zm-61.556-14.12V91h15.733c.644 0 1.166.522 1.166 1.167v3.264c0 .644-.522 1.166-1.166 1.166H42.167A1.167 1.167 0 0 1 41 95.431V63.867c0-.645.522-1.167 1.167-1.167h20.402c.644 0 1.166.522 1.166 1.167v3.263c0 .644-.522 1.166-1.166 1.166H46.836v.001zm75.496 15.578l-7.236-9.672a.7.7 0 0 1 .56-1.12h4.787c.378 0 .732.183.95.49l4.635 6.51 5.021-6.543c.221-.288.563-.457.926-.457h4.385a.7.7 0 0 1 .563 1.116l-7.15 9.676 8.548 11.422a.7.7 0 0 1-.56 1.12h-5.346a.7.7 0 0 1-.567-.289l-5.869-8.072-5.918 8.074a.7.7 0 0 1-.565.287h-5.152a.7.7 0 0 1-.56-1.12l8.548-11.422z"/><path d="M51.436 76.933h7.848a.7.7 0 0 1 .551 1.132l-2.948 3.766h-7.02a.7.7 0 0 1-.61-1.045l2.18-3.853h-.001z" opacity=".705"/></g></g></svg>