<svg width="15" height="12" viewBox="0 0 15 12" fill="none" xmlns="http://www.w3.org/2000/svg">
<path d="M14.3434 8.78044C14.3434 9.59225 14.0955 10.2417 13.5997 10.7288C13.0777 11.2429 12.4123 11.5 11.6033 11.5C10.6116 11.5 9.84175 11.1347 9.29372 10.4041C8.74569 9.70049 8.47167 8.69926 8.47167 7.40037C8.47167 6.34502 8.6413 5.42497 8.98056 4.64022C9.31981 3.82841 9.75041 3.15191 10.2723 2.6107C10.7682 2.04244 11.3162 1.59594 11.9164 1.27122C12.4906 0.919433 13.0255 0.662363 13.5214 0.500001L14.5 2.08303C13.5605 2.46187 12.7515 3.00308 12.073 3.70664C11.3945 4.41021 11.0552 5.26261 11.0552 6.26384C11.4206 6.18266 11.7077 6.14207 11.9164 6.14207C12.6732 6.14207 13.2735 6.35855 13.7171 6.79151C14.1346 7.25154 14.3434 7.91451 14.3434 8.78044Z" fill="#333333"/>
<path d="M6.37175 8.78044C6.37175 9.59225 6.12383 10.2417 5.62799 10.7288C5.10606 11.2429 4.44059 11.5 3.6316 11.5C2.63993 11.5 1.87007 11.1347 1.32204 10.4041C0.774015 9.70049 0.499999 8.69926 0.499999 7.40037C0.499999 6.34502 0.669628 5.42497 1.00888 4.64022C1.34814 3.82841 1.77874 3.15191 2.30067 2.6107C2.79651 2.04244 3.34454 1.59594 3.94476 1.27122C4.51889 0.919433 5.05387 0.662362 5.5497 0.5L6.52833 2.08303C5.58885 2.46187 4.77985 3.00307 4.10134 3.70664C3.42283 4.41021 3.08357 5.26261 3.08357 6.26384C3.44892 6.18266 3.73599 6.14207 3.94476 6.14207C4.70156 6.14207 5.30178 6.35855 5.74543 6.79151C6.16297 7.25154 6.37175 7.91451 6.37175 8.78044Z" fill="#333333"/>
</svg>
