<svg xmlns="http://www.w3.org/2000/svg" width="120" height="148" fill="none" viewBox="0 0 120 148">
  <path fill="#fff" fill-rule="evenodd" d="M72.645 20.618C71.315 12.278 67.9 5.038 60.751 0h-2.24c-3.177 2.17-5.606 4.98-7.385 8.397-4.58 8.807-5.365 18.1-3.594 27.707 2.298 12.47 7.71 23.947 11.592 35.911.296.912.907 1.027 1.699 1.096.924.079.945-.561 1.106-1.164 2.22-8.336 5.04-16.493 7.49-24.76 2.566-8.667 4.682-17.437 3.226-26.569Z" clip-rule="evenodd"/>
  <path fill="#60C824" fill-rule="evenodd" d="M47.532 36.104c-1.771-9.607-.986-18.9 3.594-27.707C52.905 4.98 55.334 2.171 58.512 0h2.24C67.9 5.038 71.314 12.278 72.644 20.618c1.456 9.132-.66 17.902-3.227 26.57-.937 3.162-1.928 6.309-2.92 9.456C64.9 61.722 63.3 66.8 61.929 71.947c-.019.073-.036.147-.054.22-.125.528-.24 1.013-1.051.944-.792-.07-1.403-.184-1.699-1.096l-.166-.508-.006-.02c-1.236-3.76-2.616-7.475-3.997-11.19-2.94-7.915-5.882-15.83-7.423-24.193Zm12.84 30.271c1.05-3.596 2.181-7.19 3.301-10.748.987-3.134 1.965-6.239 2.869-9.292 2.557-8.635 4.481-16.834 3.14-25.244C68.49 13.613 65.577 7.415 59.773 3h-.298c-2.395 1.798-4.265 4.05-5.686 6.782m6.585 56.593a501.472 501.472 0 0 0-2.637-7.209 565.23 565.23 0 0 1-2.178-5.93c-2.108-5.874-3.971-11.68-5.076-17.676-1.674-9.083-.909-17.675 3.306-25.778m6.717 61.785.463-.15Z" clip-rule="evenodd"/>
  <path fill="#fff" fill-rule="evenodd" d="M104.06 23.915c-4.153-.228-8.301-.73-12.468-.407-6.663.516-11.637 3.627-14.576 9.722a50.023 50.023 0 0 0-2.035 4.794c-3.132 8.691-6.17 17.416-9.37 26.082-.596 1.615-.767 2.45 1.072 3.333 1.2.576 1.593.546 2.26-.492a120.646 120.646 0 0 1 4.413-6.435c2.541-3.442 6.053-5.433 10.143-6.503 7.3-1.911 13.085-5.712 16.634-12.659 2.503-4.903 4.632-9.879 5.42-15.551-.016-.85-.043-1.806-1.493-1.884Z" clip-rule="evenodd"/>
  <path fill="#60C824" fill-rule="evenodd" d="M103.905 26.91h-.003Zm1.648-1.111c-.788 5.672-2.917 10.648-5.42 15.551-3.549 6.947-9.333 10.748-16.634 12.659-4.09 1.07-7.602 3.061-10.143 6.503a120.646 120.646 0 0 0-4.413 6.435c-.667 1.038-1.06 1.068-2.26.492-1.84-.884-1.668-1.718-1.072-3.333 2.023-5.479 3.982-10.981 5.94-16.484 1.139-3.2 2.278-6.402 3.43-9.598a50.023 50.023 0 0 1 2.035-4.794c2.939-6.095 7.913-9.206 14.576-9.722 3.127-.242 6.243-.02 9.359.202 1.036.074 2.072.148 3.109.205 1.45.078 1.477 1.034 1.493 1.884Zm-13.73.7c2.886-.223 5.69-.024 8.739.193.586.042 1.181.084 1.787.124-.854 4.608-2.665 8.816-4.888 13.17-3.076 6.021-8.053 9.375-14.722 11.12-4.584 1.2-8.755 3.505-11.797 7.624m20.882-32.231c-5.685.44-9.668 2.977-12.105 8.034a47.02 47.02 0 0 0-1.915 4.506l-.001.002a2530.568 2530.568 0 0 0-3.416 9.559c-1.257 3.532-2.517 7.073-3.793 10.605l.348-.474m-2.75 7.128Z" clip-rule="evenodd"/>
  <path fill="#fff" fill-rule="evenodd" d="M53.298 61.445c-2.889-8.248-5.538-16.583-8.764-24.71-1.425-3.597-3.054-7.066-6.215-9.555-3.99-3.139-8.608-3.94-13.578-3.724-2.613-.127-5.261.303-7.928.425-2.237.102-2.62.634-2.233 2.91.876 5.132 2.856 9.838 5.237 14.447 3.278 6.35 8.337 10.345 15.14 12.29 1.37.392 2.739.81 4.074 1.306 3.104 1.153 5.694 3.045 7.651 5.714a135.244 135.244 0 0 1 4.517 6.584c.62.961.983.811 1.998.381 2.106-.895 1.944-2.042 1.063-3.652-.413-.755-.675-1.597-.962-2.416Z" clip-rule="evenodd"/>
  <path fill="#60C824" fill-rule="evenodd" d="m51.895 65.87-.001-.004.001.004Zm-.696 1.262a135.244 135.244 0 0 0-4.517-6.584c-1.957-2.67-4.547-4.561-7.65-5.714-1.336-.497-2.705-.915-4.075-1.306-6.803-1.945-11.862-5.94-15.14-12.29-2.381-4.609-4.36-9.315-5.237-14.448-.388-2.275-.004-2.806 2.233-2.91a69.299 69.299 0 0 0 2.858-.21c1.701-.148 3.393-.295 5.07-.214 4.97-.217 9.589.585 13.578 3.724 3.161 2.489 4.79 5.958 6.215 9.555 2.278 5.738 4.268 11.58 6.258 17.422.828 2.432 1.657 4.864 2.506 7.288l.13.376c.24.697.482 1.4.832 2.04.881 1.61 1.043 2.757-1.063 3.652-1.015.43-1.377.58-1.998-.381Zm2.559-1.57ZM36.463 29.537c-3.218-2.533-7.023-3.284-11.592-3.085h-.276c-1.107-.054-2.266.008-3.556.112-.334.027-.684.058-1.046.09-.754.065-1.556.135-2.356.185.847 4.49 2.62 8.713 4.845 13.021 2.884 5.585 7.26 9.056 13.3 10.782 1.398.4 2.853.843 4.296 1.38 3.62 1.345 6.7 3.583 9.023 6.751l.183.25c-.456-1.33-.908-2.655-1.358-3.976-1.98-5.81-3.931-11.54-6.18-17.207-1.409-3.553-2.8-6.348-5.283-8.303m-19.015-4.015c0-.002 0-.002 0 0Z" clip-rule="evenodd"/>
  <path fill="#fff" d="M11.082 94.117v5.88c2.006-4.34 5.646-6.51 10.92-6.51v6.37c-2.987-.14-5.554.654-7.7 2.38-2.147 1.727-3.22 4.504-3.22 8.33v18.55h-6.09v-35h6.09Zm18.558-6.37c-1.166 0-2.146-.397-2.94-1.19-.793-.793-1.19-1.75-1.19-2.87s.397-2.076 1.19-2.87c.794-.84 1.774-1.26 2.94-1.26 1.12 0 2.077.42 2.87 1.26.794.794 1.19 1.75 1.19 2.87s-.396 2.077-1.19 2.87c-.793.793-1.75 1.19-2.87 1.19Zm3.01 41.37h-6.09v-35h6.09v35Zm27.211-35.91c4.9 0 9.077 1.797 12.53 5.39 3.453 3.594 5.18 7.934 5.18 13.02 0 5.134-1.727 9.497-5.18 13.09-3.407 3.547-7.583 5.32-12.53 5.32-5.787 0-10.197-2.31-13.23-6.93v20.02h-6.09v-49h6.09v6.02c3.033-4.62 7.443-6.93 13.23-6.93Zm-.77 30.94c3.5 0 6.44-1.19 8.82-3.57 2.38-2.473 3.57-5.46 3.57-8.96 0-3.546-1.19-6.51-3.57-8.89-2.38-2.426-5.32-3.64-8.82-3.64-3.547 0-6.51 1.214-8.89 3.64-2.38 2.38-3.57 5.344-3.57 8.89 0 3.5 1.19 6.487 3.57 8.96 2.38 2.38 5.343 3.57 8.89 3.57Zm57.947-9.73h-29.33c.607 3.08 2.03 5.507 4.27 7.28 2.24 1.727 5.04 2.59 8.4 2.59 4.62 0 7.98-1.703 10.08-5.11l5.18 2.94c-3.453 5.274-8.587 7.91-15.4 7.91-5.507 0-10.033-1.726-13.58-5.18-3.453-3.546-5.18-7.956-5.18-13.23 0-5.32 1.703-9.706 5.11-13.16 3.407-3.5 7.817-5.25 13.23-5.25 5.133 0 9.31 1.82 12.53 5.46 3.267 3.547 4.9 7.887 4.9 13.02 0 .887-.07 1.797-.21 2.73Zm-17.22-15.47c-3.22 0-5.927.91-8.12 2.73-2.147 1.82-3.477 4.294-3.99 7.42h23.38c-.513-3.22-1.797-5.716-3.85-7.49-2.053-1.773-4.527-2.66-7.42-2.66Z"/>
</svg>
