<svg width="229" height="178" viewBox="0 0 229 178" fill="none" xmlns="http://www.w3.org/2000/svg">
<g clip-path="url(#clip0_1477_23491)">
<path d="M19.2787 134.462C18.8146 133.218 18.0001 132.137 16.9338 131.347C15.8676 130.558 14.5954 130.095 13.2714 130.014C12.1836 130.014 11.1389 130.439 10.361 131.2C9.583 131.96 9.13357 132.995 9.10885 134.083V134.414C9.10885 142.316 26.3266 140.755 26.3266 153.341C26.377 154.904 26.1181 156.463 25.5647 157.926C25.0113 159.389 24.1743 160.729 23.1018 161.867C22.0294 163.006 20.7425 163.922 19.3153 164.562C17.888 165.201 16.3484 165.553 14.785 165.596H13.7444C10.5573 165.633 7.46349 164.52 5.03068 162.46C2.59787 160.401 0.989255 157.532 0.5 154.382L5.65587 151.117C6.7911 155.848 9.15617 159.681 13.7444 159.681C14.5149 159.719 15.2853 159.605 16.0116 159.345C16.7378 159.085 17.4057 158.684 17.9769 158.165C18.5481 157.647 19.0114 157.021 19.3403 156.323C19.6692 155.625 19.8572 154.869 19.8936 154.098V153.625C19.8936 145.723 2.77048 147.426 2.77048 135.029C2.73907 133.675 2.97478 132.327 3.46417 131.064C3.95356 129.8 4.687 128.645 5.62263 127.666C6.55827 126.686 7.67776 125.9 8.91712 125.353C10.1565 124.806 11.4914 124.509 12.8457 124.478H13.2714C15.5608 124.417 17.8204 125.008 19.7879 126.18C21.7555 127.353 23.3503 129.059 24.3872 131.102L19.2787 134.462Z" fill="white"/>
<path d="M38.5303 135.834V140.565C39.4967 138.92 40.8805 137.558 42.5417 136.619C44.203 135.681 46.0826 135.197 47.9906 135.219C50.0842 135.062 52.1548 135.74 53.7501 137.105C55.3454 138.471 56.3357 140.412 56.5048 142.505C56.553 142.961 56.553 143.421 56.5048 143.877V164.649H50.3556V145.723C50.3556 141.843 48.5582 140.471 45.862 140.471C42.1252 140.471 38.4357 144.871 38.4357 152.867V164.602H32.5703V136.212L38.5303 135.834Z" fill="white"/>
<path d="M74.7158 147.047H79.4459V145.912C79.4459 142.268 76.8443 140.802 73.7697 140.802C72.631 140.854 71.5355 141.254 70.6307 141.947C69.7259 142.641 69.0551 143.595 68.7085 144.682L63.2215 143.499C63.8055 141.112 65.2112 139.007 67.192 137.553C69.1728 136.099 71.6021 135.39 74.0536 135.55C75.6217 135.312 77.2235 135.445 78.7312 135.937C80.2388 136.43 81.6105 137.268 82.7365 138.385C83.8625 139.502 84.7117 140.868 85.2163 142.372C85.7209 143.876 85.8668 145.477 85.6424 147.047V165.075H80.5338L79.9662 161.431C78.947 162.828 77.5959 163.949 76.035 164.692C74.4742 165.436 72.7528 165.779 71.0263 165.69C68.8593 165.875 66.7067 165.199 65.0338 163.809C63.3609 162.419 62.3021 160.426 62.0863 158.261C62.039 157.726 62.039 157.188 62.0863 156.653C62.0863 150.643 67.1948 147.189 74.6685 147.189L74.7158 147.047ZM72.3034 160.154C74.2077 160.244 76.0708 159.579 77.4879 158.304C78.905 157.028 79.7616 155.244 79.8716 153.34V152.158H74.6685C70.9316 152.158 68.6612 153.861 68.6612 156.653C68.5958 157.511 68.8722 158.361 69.4304 159.017C69.9885 159.673 70.7832 160.082 71.6412 160.154H72.3034Z" fill="white"/>
<path d="M106.598 165.406C105.109 165.452 103.631 165.146 102.283 164.513C100.935 163.88 99.7553 162.938 98.8401 161.763V176.714H92.7383V135.833H98.6983V139.193C99.6124 137.972 100.808 136.99 102.184 136.331C103.559 135.671 105.073 135.355 106.598 135.408C115.159 135.408 119.511 141.085 119.511 150.359C119.511 159.633 115.301 165.264 106.598 165.264V165.406ZM105.888 140.66C101.584 140.66 98.4617 144.35 98.4617 150.123C98.4617 155.895 101.584 159.586 105.888 159.586C110.192 159.586 113.362 155.895 113.362 150.123C113.362 144.35 110.24 140.66 105.888 140.66Z" fill="white"/>
<path d="M161.988 135.976L152.811 164.98H147.324L142.121 144.492L136.871 164.98H131.431L122.207 136.212H128.545L134.08 157.41L139.236 135.976H145.006L150.257 157.173L155.838 135.976H161.988Z" fill="white"/>
<path d="M169.413 123.626C169.957 123.62 170.497 123.721 171.002 123.926C171.507 124.13 171.966 124.432 172.353 124.815C172.74 125.198 173.048 125.654 173.257 126.156C173.467 126.659 173.575 127.198 173.575 127.742C173.511 128.297 173.337 128.834 173.064 129.32C172.79 129.807 172.423 130.235 171.982 130.578C171.542 130.922 171.038 131.174 170.5 131.321C169.961 131.468 169.399 131.506 168.845 131.433C167.867 131.286 166.98 130.78 166.355 130.014C165.73 129.248 165.414 128.276 165.467 127.289C165.52 126.301 165.939 125.369 166.643 124.674C167.346 123.979 168.283 123.572 169.271 123.531L169.413 123.626ZM172.393 135.975V164.98H166.338V136.212L172.393 135.975Z" fill="white"/>
<path d="M179.68 164.98V136.212H185.829V140.944C186.687 139.461 187.903 138.216 189.365 137.324C190.828 136.431 192.49 135.919 194.201 135.833C195.46 135.838 196.709 136.062 197.891 136.496L196.85 141.985C195.822 141.315 194.624 140.954 193.397 140.944C189.518 140.944 185.545 145.202 185.545 154.287V165.075L179.68 164.98Z" fill="white"/>
<path d="M227.359 152.157H206.83C206.646 154.077 207.229 155.991 208.452 157.481C209.676 158.971 211.44 159.915 213.358 160.107H214.209C215.79 160.118 217.341 159.679 218.681 158.841C220.021 158.003 221.095 156.801 221.778 155.375L227.17 157.268C226.205 159.861 224.412 162.063 222.069 163.534C219.726 165.005 216.964 165.663 214.209 165.406C212.404 165.387 210.62 165.013 208.96 164.303C207.299 163.593 205.795 162.562 204.534 161.27C203.273 159.978 202.279 158.449 201.61 156.771C200.941 155.094 200.609 153.301 200.634 151.495C200.634 151.164 200.634 150.833 200.634 150.501C200.386 146.886 201.572 143.318 203.937 140.572C206.301 137.827 209.652 136.124 213.263 135.833H214.209C217.714 135.808 221.086 137.173 223.586 139.63C226.086 142.087 227.511 145.434 227.548 148.94V152.441L227.359 152.157ZM206.925 147.047H221.115C221.115 145.165 220.368 143.36 219.037 142.029C217.707 140.698 215.902 139.95 214.02 139.95C212.138 139.95 210.334 140.698 209.003 142.029C207.673 143.36 206.925 145.165 206.925 147.047Z" fill="white"/>
<path d="M167.331 53.2763C167.02 38.9781 161.091 25.389 150.847 15.4952C140.602 5.60131 126.88 0.212138 112.696 0.511865C98.6128 1.20143 85.3341 7.33051 75.6152 17.6272C65.8963 27.9238 60.4834 41.5974 60.5 55.8101C60.893 64.0525 63.0844 72.106 66.9181 79.397C70.7518 86.688 76.1333 93.0371 82.6795 97.9918C91.9938 104.79 103.192 108.466 114.692 108.5H115.727C129.873 108.033 143.259 101.937 152.958 91.5456C162.656 81.1546 167.877 67.3143 167.479 53.0527L167.331 53.2763ZM69.8894 55.4375C69.9124 43.6974 74.4038 32.4138 82.4372 23.9136C90.4706 15.4134 101.434 10.3448 113.065 9.75309C120.796 9.56233 128.442 11.4121 135.245 15.119L101.458 34.9429C97.5102 36.9574 94.4515 40.3863 92.882 44.5567C92.3897 46.1966 92.2538 47.9241 92.4834 49.6217C92.713 51.3193 93.3029 52.947 94.2128 54.3941C101.236 66.5419 111.587 60.8034 116.392 58.344C121.198 55.8847 123.046 56.4809 124.525 59.0893C125.108 60.2118 125.265 61.5099 124.968 62.741C124.798 63.3554 124.508 63.9291 124.114 64.4283C123.721 64.9276 123.232 65.3422 122.676 65.6476L85.7107 88.0054C81.0796 83.8952 77.318 78.8863 74.6505 73.2778C71.9829 67.6694 70.4642 61.5764 70.1851 55.363L69.8894 55.4375ZM146.408 85.1734C142.431 89.4453 137.65 92.8773 132.345 95.2698C127.04 97.6624 121.315 98.9676 115.505 99.1097C108.13 99.1686 100.851 97.4299 94.2867 94.042L127.556 73.8454C129.169 72.9372 130.589 71.717 131.734 70.2546C132.879 68.7922 133.727 67.1165 134.228 65.3234C134.73 63.5303 134.875 61.655 134.656 59.8052C134.437 57.9553 133.858 56.1672 132.953 54.5432C128.369 46.5689 121.42 45.0784 112.178 50.2207C105.894 53.6489 104.785 53.2763 102.863 49.7735C102.62 49.4477 102.453 49.0704 102.376 48.67C102.299 48.2697 102.314 47.857 102.419 47.4632C103.121 45.6594 104.395 44.1399 106.042 43.1407L143.599 20.7829C148.103 24.84 151.738 29.7817 154.281 35.305C156.823 40.8283 158.22 46.8169 158.385 52.9036C158.69 64.6984 154.359 76.1368 146.334 84.7262" fill="white"/>
</g>
<defs>
<clipPath id="clip0_1477_23491">
<rect width="228" height="177" fill="white" transform="translate(0.5 0.5)"/>
</clipPath>
</defs>
</svg>
