<svg width="155" height="154" viewBox="0 0 155 154" fill="none" xmlns="http://www.w3.org/2000/svg">
<rect x="0.5" width="154" height="154" rx="32" fill="url(#paint0_linear_299_18826)"/>
<path d="M53.2656 47.0469H41.7188V52.3438H51.8281V56.3438H41.7188V66H36.9375V43H53.2656V47.0469ZM66.2812 56.9688H61.3125V66H56.6094V42.9688H67.9062C69.5208 43 70.7604 43.1979 71.625 43.5625C72.5 43.9271 73.2396 44.4635 73.8438 45.1719C74.3438 45.7552 74.7396 46.401 75.0312 47.1094C75.3229 47.8177 75.4688 48.625 75.4688 49.5312C75.4688 50.625 75.1927 51.7031 74.6406 52.7656C74.0885 53.8177 73.1771 54.5625 71.9062 55C72.9688 55.4271 73.7188 56.0365 74.1562 56.8281C74.6042 57.6094 74.8281 58.8073 74.8281 60.4219V61.9688C74.8281 63.0208 74.8698 63.7344 74.9531 64.1094C75.0781 64.7031 75.3698 65.1406 75.8281 65.4219V66H70.5312C70.3854 65.4896 70.2812 65.0781 70.2188 64.7656C70.0938 64.1198 70.026 63.4583 70.0156 62.7812L69.9844 60.6406C69.9635 59.1719 69.6927 58.1927 69.1719 57.7031C68.6615 57.2135 67.6979 56.9688 66.2812 56.9688ZM69.2031 52.7812C70.1615 52.3438 70.6406 51.4792 70.6406 50.1875C70.6406 48.7917 70.1771 47.8542 69.25 47.375C68.7292 47.1042 67.9479 46.9688 66.9062 46.9688H61.3125V53.1562H66.7656C67.849 53.1562 68.6615 53.0312 69.2031 52.7812ZM95.6562 55.9375H84.4688V61.8594H97.2188V66H79.7656V42.9688H96.6562V47.0469H84.4688V51.9375H95.6562V55.9375ZM117 55.9375H105.812V61.8594H118.562V66H101.109V42.9688H118V47.0469H105.812V51.9375H117V55.9375Z" fill="white"/>
<path d="M43.2725 86.2959C44.195 86.2959 44.944 86.1943 45.5195 85.9912C46.6113 85.6019 47.1572 84.8783 47.1572 83.8203C47.1572 83.2025 46.8864 82.7243 46.3447 82.3857C45.8031 82.0557 44.9525 81.7637 43.793 81.5098L41.8125 81.0654C39.8659 80.6253 38.5202 80.1471 37.7754 79.6309C36.5143 78.7676 35.8838 77.4176 35.8838 75.5811C35.8838 73.9053 36.4932 72.513 37.7119 71.4043C38.9307 70.2956 40.7207 69.7412 43.082 69.7412C45.054 69.7412 46.734 70.266 48.1221 71.3154C49.5186 72.3564 50.2507 73.8714 50.3184 75.8604H46.5605C46.4928 74.7347 46.002 73.9349 45.0879 73.4609C44.4785 73.1478 43.721 72.9912 42.8154 72.9912C41.8083 72.9912 41.0042 73.1943 40.4033 73.6006C39.8024 74.0068 39.502 74.5739 39.502 75.3018C39.502 75.9704 39.7982 76.4697 40.3906 76.7998C40.7715 77.0199 41.584 77.278 42.8281 77.5742L46.0527 78.3486C47.4661 78.6872 48.5326 79.14 49.252 79.707C50.3691 80.5872 50.9277 81.861 50.9277 83.5283C50.9277 85.238 50.2718 86.6598 48.96 87.7939C47.6566 88.9196 45.8115 89.4824 43.4248 89.4824C40.9873 89.4824 39.0703 88.9281 37.6738 87.8193C36.2773 86.7021 35.5791 85.1702 35.5791 83.2236H39.3115C39.43 84.0785 39.6628 84.7174 40.0098 85.1406C40.6445 85.9108 41.7321 86.2959 43.2725 86.2959ZM67.4189 70.2871V73.6006H61.8203V89H57.8848V73.6006H52.2607V70.2871H67.4189ZM80.7871 81.7891V70.2871H84.7607V81.7891C84.7607 83.778 84.4518 85.3268 83.834 86.4355C82.6829 88.4668 80.4867 89.4824 77.2451 89.4824C74.0036 89.4824 71.8031 88.4668 70.6436 86.4355C70.0257 85.3268 69.7168 83.778 69.7168 81.7891V70.2871H73.6904V81.7891C73.6904 83.0755 73.8428 84.015 74.1475 84.6074C74.6214 85.6569 75.654 86.1816 77.2451 86.1816C78.8278 86.1816 79.8561 85.6569 80.3301 84.6074C80.6348 84.015 80.7871 83.0755 80.7871 81.7891ZM101.772 73.6006H92.3906V77.9043H100.604V81.1543H92.3906V89H88.5059V70.3125H101.772V73.6006ZM117.667 73.6006H108.285V77.9043H116.499V81.1543H108.285V89H104.4V70.3125H117.667V73.6006Z" fill="white"/>
<path d="M47.6946 96.6736H39.5757V100.398H46.6838V103.21H39.5757V110H36.2139V93.8281H47.6946V96.6736ZM49.7051 93.8062H53.0669V110H49.7051V93.8062ZM69.3267 110H65.9429L59.3291 98.4973V110H56.176V93.8062H59.7246L66.1736 105.111V93.8062H69.3267V110ZM79.467 110H72.4907V93.8062H79.467C80.4705 93.8208 81.3054 93.938 81.9719 94.1577C83.1072 94.5312 84.0264 95.2161 84.7295 96.2122C85.2935 97.0178 85.678 97.8894 85.8831 98.8269C86.0881 99.7644 86.1907 100.658 86.1907 101.508C86.1907 103.661 85.7585 105.485 84.8943 106.979C83.7224 108.993 81.9133 110 79.467 110ZM81.9829 97.937C81.4629 97.0581 80.4338 96.6187 78.8958 96.6187H75.7756V107.188H78.8958C80.4924 107.188 81.6057 106.4 82.2356 104.825C82.5798 103.961 82.752 102.932 82.752 101.738C82.752 100.09 82.4956 98.8232 81.9829 97.937ZM100.022 102.925H92.1562V107.089H101.121V110H88.8494V93.8062H100.726V96.6736H92.1562V100.112H100.022V102.925ZM110.635 103.65H107.142V110H103.835V93.8062H111.778C112.913 93.8281 113.785 93.9673 114.393 94.2236C115.008 94.48 115.528 94.8572 115.953 95.3552C116.304 95.7654 116.583 96.2195 116.788 96.7175C116.993 97.2156 117.095 97.7832 117.095 98.4204C117.095 99.1895 116.901 99.9475 116.513 100.695C116.125 101.434 115.484 101.958 114.59 102.266C115.337 102.566 115.865 102.994 116.172 103.551C116.487 104.1 116.645 104.943 116.645 106.078V107.166C116.645 107.905 116.674 108.407 116.733 108.671C116.821 109.088 117.026 109.396 117.348 109.594V110H113.624C113.521 109.641 113.448 109.352 113.404 109.132C113.316 108.678 113.268 108.213 113.261 107.737L113.239 106.232C113.224 105.199 113.034 104.51 112.668 104.166C112.309 103.822 111.631 103.65 110.635 103.65ZM112.69 100.706C113.364 100.398 113.7 99.79 113.7 98.8818C113.7 97.9004 113.375 97.2412 112.723 96.9043C112.356 96.7139 111.807 96.6187 111.075 96.6187H107.142V100.969H110.976C111.738 100.969 112.309 100.881 112.69 100.706Z" fill="white"/>
<defs>
<linearGradient id="paint0_linear_299_18826" x1="154.627" y1="0.216896" x2="-1.20371" y2="152.691" gradientUnits="userSpaceOnUse">
<stop stop-color="#FF8F95"/>
<stop offset="1" stop-color="#E73D9E"/>
</linearGradient>
</defs>
</svg>
