<svg width="169" height="186" viewBox="0 0 169 186" fill="none" xmlns="http://www.w3.org/2000/svg">
<rect x="26.9258" y="0.986328" width="115.149" height="114" rx="32" fill="url(#paint0_linear_290_5053)"/>
<g filter="url(#filter0_d_290_5053)">
<path fill-rule="evenodd" clip-rule="evenodd" d="M94.3704 97.8739C93.2624 98.1538 92.0872 97.9044 91.1883 97.1989C90.2834 96.4984 89.7555 95.4172 89.7599 94.273V84.1934C89.7599 78.3381 91.9325 75.6083 94.2307 72.7212C94.2949 72.6397 94.3592 72.5581 94.4238 72.4763C94.7256 72.0936 95.0306 71.7068 95.3322 71.3079C97.745 68.1188 98.1621 66.0694 98.189 62.6804C98.2313 57.212 96.6297 49.7702 94.9857 42.6146C94.7203 41.342 95.5234 40.0916 96.7915 39.8028C98.0596 39.5138 99.3257 40.2929 99.6385 41.5545C101.344 48.9842 103.008 56.7387 102.962 62.7247C102.93 66.9277 102.311 70.0004 99.1401 74.1913C98.7422 74.7161 98.3569 75.2019 97.9839 75.6718L97.966 75.6931L97.9636 75.6962C95.8985 78.2915 94.533 80.0077 94.533 84.195V92.8914C109.68 88.4884 120.233 74.5412 120.3 58.6892C120.365 49.1729 116.624 40.0249 109.909 33.2779C103.194 26.5306 94.0615 22.7434 84.5398 22.7573H84.5026C66.6929 22.7651 51.5977 35.8564 49.0798 53.4771C46.5618 71.0981 57.3871 87.8891 74.4826 92.8791L74.4667 84.1934C74.4667 80.0007 73.1013 78.2848 71.0364 75.6896L71.0337 75.6862L71.016 75.6649C70.9697 75.6066 70.9232 75.548 70.8765 75.4893C70.5471 75.0748 70.2083 74.6485 69.8598 74.1843C66.6882 69.9916 66.0697 66.9208 66.0379 62.7176C65.992 56.7315 67.6554 48.9681 69.3614 41.5476C69.6585 40.2652 70.9374 39.4641 72.2216 39.7558C72.8386 39.8973 73.3744 40.2779 73.7104 40.8141C74.0467 41.3503 74.156 41.9978 74.0142 42.6146C72.37 49.7702 70.7686 57.212 70.8109 62.6804C70.8391 66.0694 71.2546 68.1276 73.6677 71.3079C73.9097 71.628 74.157 71.9404 74.399 72.246C74.523 72.4026 74.6456 72.5575 74.7654 72.7107L74.7734 72.7208C77.0722 75.6163 79.2397 78.3466 79.2397 84.195L79.2574 94.266C79.2597 95.4103 78.7335 96.4917 77.8315 97.1965C76.9295 97.9013 75.7523 98.1504 74.6418 97.8719C65.9638 95.6633 58.2498 90.6713 52.6822 83.6614C43.0275 71.4733 41.2006 54.8392 47.9794 40.8479C54.7585 26.8566 68.9486 17.9746 84.5026 17.9865H84.5432C95.3367 17.9542 105.693 22.2495 113.291 29.9111C120.935 37.5897 125.12 47.8179 125.075 58.7105C125.014 77.2496 112.367 93.3812 94.3704 97.8739ZM82.8191 32.4698L80.0333 32.6765H80.0351C69.8649 34.4342 61.6684 41.9841 59.0875 51.9719C56.5067 61.9596 60.0202 72.5322 68.0671 78.992C68.7732 79.5121 69.137 80.3778 69.0143 81.2461C68.8914 82.1143 68.3019 82.8453 67.4792 83.1493C66.6561 83.4534 65.7326 83.2819 65.0742 82.7022C55.5485 75.0516 51.4028 62.5254 54.4848 50.7067C57.5668 38.8877 67.3025 29.9775 79.3527 27.9467L79.5701 27.9202L82.4674 27.7064C83.8246 27.6057 85.1872 27.6057 86.5442 27.7064L89.6589 27.9467C101.709 29.9775 111.445 38.8877 114.527 50.7067C117.609 62.5254 113.463 75.0516 103.938 82.7022C102.909 83.4599 101.466 83.2734 100.664 82.2791C99.8618 81.285 99.9856 79.836 100.944 78.992C108.991 72.532 112.505 61.959 109.923 51.9712C107.342 41.9834 99.1453 34.4337 88.9749 32.6765L86.1886 32.4698C85.067 32.3868 83.9408 32.3868 82.8191 32.4698ZM86.8713 61.6892V38.8195C86.8713 37.5021 87.9397 36.4344 89.2577 36.4344C90.5757 36.4344 91.644 37.5021 91.644 38.8195V61.6892C91.644 63.0066 90.5757 64.0745 89.2577 64.0745C87.9397 64.0745 86.8713 63.0066 86.8713 61.6892ZM79.746 64.0748C81.0631 64.0728 82.1303 63.0062 82.1324 61.6896V38.8199C82.1324 37.5025 81.064 36.4346 79.746 36.4346C78.4277 36.4346 77.3594 37.5025 77.3594 38.8199V61.6896C77.3614 63.0062 78.4286 64.0728 79.746 64.0748Z" fill="#FFFAC7"/>
</g>
<path fill-rule="evenodd" clip-rule="evenodd" d="M138.281 131.986C136.639 131.984 135.305 133.313 135.302 134.955C135.301 136.073 135.296 137.19 135.292 138.307C135.285 140.329 135.277 142.35 135.283 144.372L135.293 153.789L135.306 163.206L135.353 172.622C135.362 174.223 136.657 175.522 138.262 175.531C139.875 175.538 141.19 174.237 141.199 172.622L141.246 163.206L141.259 153.789L141.268 144.372C141.275 142.346 141.267 140.32 141.26 138.294L141.26 138.287C141.256 137.176 141.252 136.066 141.25 134.955C141.252 133.313 139.923 131.989 138.281 131.986ZM14.7224 170.063C14.7315 170.062 14.7385 170.062 14.7197 170.069C15.818 169.725 16.9869 170.337 17.331 171.435C17.6749 172.533 17.0635 173.702 15.9651 174.046L15.5827 174.186C15.4725 174.225 15.3645 174.262 15.2563 174.294C15.0398 174.359 14.8242 174.415 14.6063 174.465C14.1702 174.562 13.7256 174.64 13.2652 174.674C12.3482 174.739 11.3667 174.678 10.3646 174.397C9.36991 174.11 8.37437 173.567 7.56247 172.835C6.74571 172.107 6.11943 171.221 5.69677 170.326C5.26525 169.432 4.99081 168.534 4.82603 167.662C4.74007 167.225 4.6801 166.797 4.63298 166.372C4.59471 165.949 4.56672 165.53 4.5573 165.118L4.51817 160.836L4.47762 153.294H2.47799C1.10948 153.294 0 152.184 0 150.816C0 149.447 1.10948 148.337 2.47799 148.337H4.45335L4.45221 148.12L4.46049 143.881V143.872C4.46363 142.23 5.79786 140.901 7.44024 140.904C9.08261 140.907 10.4111 142.23 10.408 143.872L10.4163 148.113L10.4151 148.337H14.8685C16.2373 148.337 17.3468 149.447 17.3468 150.816C17.3468 152.184 16.2373 153.294 14.8685 153.294H10.3914C10.388 153.957 10.3852 154.621 10.3824 155.284V155.285V155.285V155.285V155.285V155.285V155.285C10.3745 157.135 10.3666 158.985 10.3466 160.834L10.3043 165.032C10.2978 165.623 10.3237 166.19 10.3794 166.718C10.4394 167.245 10.5451 167.727 10.6916 168.13C11.0031 168.941 11.3336 169.4 12.0115 169.737C12.3497 169.908 12.7855 170.029 13.2741 170.077C13.5177 170.103 13.7747 170.117 14.034 170.112C14.1631 170.11 14.293 170.104 14.4193 170.094L14.6029 170.076L14.6854 170.067L14.7194 170.063L14.7224 170.063ZM69.8736 160.219L69.8753 162.494L69.8948 167.046L69.9033 169.322L69.8859 171.598L69.8853 171.657C69.8731 173.299 68.5317 174.62 66.8896 174.608C65.2658 174.596 63.9561 173.281 63.939 171.664L63.9159 169.375L63.9184 167.086L63.9261 162.508C63.9248 162.284 63.9246 162.06 63.9244 161.836C63.924 161.297 63.9235 160.758 63.907 160.219L63.8756 159.074L63.8553 158.55C63.8496 158.397 63.8419 158.246 63.8268 158.098C63.7808 157.504 63.674 156.942 63.5469 156.434C63.4815 156.18 63.4004 155.941 63.3173 155.716C63.2345 155.494 63.1505 155.276 63.0468 155.088C62.8435 154.706 62.6345 154.382 62.384 154.112C62.1407 153.833 61.8528 153.61 61.5047 153.42C60.813 153.043 59.8118 152.906 58.7571 153.154C57.7051 153.397 56.6139 153.999 55.6997 154.96C55.2454 155.439 54.817 156.001 54.4626 156.64C54.2887 156.944 54.1305 157.266 53.9828 157.601C53.9844 157.63 53.9867 157.66 53.989 157.69L53.989 157.69L53.989 157.69C53.9913 157.72 53.9935 157.749 53.9951 157.778C54.0085 158.01 54.0134 158.238 54.0145 158.465L54.0171 158.796L54.0151 159.081L54.0136 160.219L54.0154 162.494L54.0348 167.046L54.0434 169.322L54.0259 171.598L54.0256 171.657C54.0131 173.299 52.672 174.62 51.0296 174.608C49.4061 174.596 48.0961 173.281 48.079 171.664L48.0559 169.375L48.0582 167.086L48.0662 162.508C48.0648 162.286 48.0646 162.064 48.0644 161.841C48.0639 161.301 48.0633 160.76 48.0467 160.219L48.0156 159.074L47.9956 158.55C47.9899 158.397 47.9819 158.246 47.9668 158.098C47.9208 157.504 47.814 156.942 47.6872 156.434C47.6218 156.18 47.5404 155.941 47.4573 155.716C47.3745 155.494 47.2905 155.276 47.1869 155.088C46.9835 154.706 46.7742 154.382 46.5237 154.112C46.2807 153.833 45.9928 153.61 45.6447 153.42C44.9531 153.043 43.9518 152.906 42.8972 153.154C41.8451 153.397 40.7539 153.999 39.84 154.96C39.3854 155.439 38.957 156.001 38.6026 156.64C38.445 156.916 38.3019 157.207 38.1662 157.508V171.631C38.1662 173.273 36.8349 174.605 35.1925 174.605C33.5501 174.605 32.2188 173.274 32.2188 171.631V149.823C32.2188 148.181 33.5501 146.85 35.1925 146.85C36.8349 146.85 38.1662 148.181 38.1662 149.823V151.46C38.2945 151.292 38.4278 151.127 38.5672 150.966C38.8919 150.592 39.248 150.239 39.6373 149.917C40.0288 149.6 40.4489 149.31 40.8947 149.054C41.786 148.546 42.7835 148.163 43.8493 147.997C44.9122 147.823 46.0431 147.846 47.1514 148.107C48.2572 148.368 49.3293 148.883 50.2383 149.584C51.1416 150.292 51.8889 151.163 52.431 152.093C52.648 152.454 52.8285 152.822 52.9918 153.193C53.1549 152.836 53.3385 152.484 53.5493 152.144C53.8063 151.732 54.103 151.34 54.4272 150.966C54.7519 150.592 55.108 150.239 55.497 149.917C55.8888 149.6 56.3089 149.31 56.7547 149.054C57.6459 148.546 58.6435 148.163 59.7093 147.997C60.7722 147.823 61.9028 147.846 63.0111 148.107C64.1172 148.368 65.189 148.883 66.0983 149.584C67.0015 150.292 67.7489 151.163 68.2909 152.093C68.57 152.557 68.7896 153.034 68.9886 153.512C69.1791 153.992 69.3285 154.474 69.4518 154.953C69.7014 155.912 69.8062 156.858 69.8551 157.778C69.8688 158.01 69.8733 158.238 69.8745 158.465L69.8768 158.796L69.8751 159.081L69.8736 160.219ZM20.3164 149.823C20.3164 148.181 21.6478 146.85 23.2902 146.85C24.9325 146.85 26.2639 148.181 26.2639 149.823V171.631C26.2639 173.273 24.9325 174.605 23.2902 174.605C21.6478 174.605 20.3164 173.273 20.3164 171.631V149.823ZM23.2902 142.885C24.9323 142.885 26.2636 141.553 26.2636 139.911C26.2636 138.269 24.9323 136.938 23.2902 136.938C21.6478 136.938 20.3164 138.269 20.3164 139.911C20.3164 141.553 21.6478 142.885 23.2902 142.885ZM87.9724 157.429L92.8998 157.447C93.2892 157.448 93.6788 157.45 94.0682 157.452H94.0684L94.3837 157.454C94.3724 157.43 94.3618 157.405 94.3512 157.38L94.3511 157.38L94.3511 157.38C94.3384 157.35 94.3258 157.321 94.312 157.292C93.8953 156.395 93.3821 155.563 92.7838 154.805C92.1821 154.051 91.495 153.36 90.6917 152.825C89.8929 152.286 88.9753 151.917 88.0129 151.798C86.0727 151.572 84.0985 152.237 82.6489 153.557C81.4831 154.595 80.653 155.973 80.1543 157.455L80.5813 157.451L83.045 157.441L87.9724 157.429ZM93.1762 148.23C94.6398 148.92 95.9801 149.883 97.0695 151.072C98.1619 152.257 99.0141 153.651 99.5692 155.14C100.113 156.632 100.393 158.215 100.298 159.767L100.277 160.108C100.197 161.414 99.114 162.421 97.8275 162.44C96.1848 162.459 94.5424 162.474 92.8998 162.476L87.9724 162.495L83.045 162.482L80.5813 162.473L79.7083 162.463C79.7374 162.654 79.7705 162.843 79.8088 163.031C79.9039 163.512 80.0344 163.984 80.2 164.443C80.529 165.361 80.9928 166.228 81.5751 167C82.1608 167.769 82.8739 168.431 83.6741 168.941C84.476 169.447 85.3685 169.794 86.3009 169.932C86.7744 170.004 87.1999 170.029 87.8202 170.015C88.3865 170.006 88.9025 169.966 89.3792 169.889C89.8558 169.812 90.2922 169.699 90.7197 169.535C91.1432 169.359 91.5624 169.131 91.9862 168.861C92.8333 168.305 93.6751 167.554 94.481 166.704C95.4843 165.645 97.1558 165.6 98.2144 166.603C99.2734 167.606 99.3185 169.278 98.3152 170.337C98.2864 170.367 98.257 170.397 98.2267 170.426L98.2144 170.437C97.1986 171.405 96.0909 172.361 94.778 173.213C94.1124 173.63 93.3938 174.014 92.6219 174.321C91.8497 174.629 91.0369 174.853 90.2436 174.99C89.4503 175.128 88.6786 175.189 87.9573 175.211C87.2904 175.231 86.424 175.239 85.6203 175.14C84.8082 175.046 84.0045 174.872 83.2235 174.628C82.443 174.382 81.691 174.055 80.9725 173.671C79.5369 172.9 78.2552 171.869 77.1897 170.661C76.1251 169.451 75.2786 168.062 74.6712 166.581C74.082 165.093 73.7194 163.516 73.6345 161.929C73.5343 160.347 73.6931 158.745 74.1143 157.207C74.9371 154.126 76.8313 151.339 79.4295 149.462C80.0752 148.989 80.7646 148.572 81.4886 148.223C82.2085 147.867 82.9667 147.582 83.7441 147.371C85.3005 146.942 86.9263 146.815 88.5247 146.966C90.1254 147.119 91.7106 147.541 93.1762 148.23ZM169 149.824C169 148.181 167.668 146.85 166.026 146.85C164.383 146.85 163.052 148.182 163.052 149.824L163.052 165.63L163.05 165.634L163.047 165.638C162.853 165.966 162.634 166.271 162.394 166.548C162.159 166.827 161.924 167.091 161.659 167.322C161.399 167.555 161.126 167.762 160.845 167.947C160.568 168.136 160.282 168.302 159.989 168.445C159.695 168.585 159.392 168.701 159.088 168.794C158.791 168.9 158.487 168.98 158.184 169.037C156.967 169.265 155.759 169.141 154.81 168.773C154.339 168.581 153.922 168.353 153.591 168.055C153.42 167.915 153.262 167.769 153.12 167.607C153.013 167.491 152.922 167.361 152.83 167.23C152.797 167.182 152.763 167.134 152.728 167.086C152.602 166.906 152.494 166.704 152.396 166.488C152.293 166.275 152.197 166.044 152.117 165.798C151.964 165.303 151.827 164.752 151.775 164.147C151.772 164.115 151.769 164.083 151.766 164.05C151.754 163.931 151.743 163.812 151.74 163.688L151.729 163.454L151.719 163.155L151.687 161.94C151.669 161.38 151.669 160.82 151.668 160.259C151.668 160.01 151.668 159.761 151.666 159.511L151.673 154.654L151.676 152.224L151.653 149.796C151.636 148.177 150.325 146.862 148.7 146.851C147.058 146.839 145.717 148.161 145.706 149.803L145.705 149.852L145.688 152.269L145.697 154.687L145.717 159.521L145.719 161.939L145.717 163.147L145.716 163.453L145.72 163.824C145.72 164.05 145.734 164.28 145.747 164.51L145.751 164.572C145.816 165.573 145.98 166.615 146.322 167.647C146.659 168.677 147.158 169.71 147.852 170.642C148.539 171.579 149.445 172.379 150.442 172.986C151.448 173.581 152.546 173.974 153.644 174.164C155.848 174.522 158.023 174.164 159.889 173.251C160.357 173.027 160.808 172.77 161.236 172.48C161.66 172.185 162.063 171.862 162.439 171.511C162.653 171.309 162.856 171.097 163.052 170.878V172.942C163.052 176.433 160.182 179.066 156.377 179.066C153.344 179.066 151.939 178.162 151.881 178.124C151.928 178.155 151.95 178.174 151.95 178.174L151.948 178.176C151.451 177.803 150.836 177.579 150.166 177.579C148.523 177.579 147.192 178.91 147.192 180.553C147.192 181.525 147.661 182.386 148.384 182.929L148.382 182.932C148.845 183.279 151.409 185.014 156.377 185.014C163.455 185.014 169 179.711 169 172.942L169 149.824ZM124.802 162.362C124.829 162.193 124.855 162.023 124.873 161.852L124.894 161.477V160.44L124.876 160.099C124.859 159.928 124.833 159.758 124.807 159.589C124.789 159.47 124.771 159.352 124.756 159.233C124.747 159.124 124.718 159.018 124.69 158.913C124.68 158.878 124.671 158.843 124.662 158.807L124.553 158.386C124.524 158.244 124.473 158.109 124.421 157.973L124.275 157.566C123.847 156.495 123.215 155.522 122.448 154.712C121.678 153.903 120.761 153.274 119.787 152.855C118.818 152.423 117.778 152.215 116.738 152.245C114.657 152.251 112.649 153.259 111.249 154.906C109.838 156.545 109.073 158.753 109.089 160.975C109.08 163.197 109.852 165.4 111.266 167.03C111.967 167.845 112.817 168.509 113.752 168.962C114.687 169.417 115.703 169.657 116.738 169.662C117.772 169.693 118.805 169.487 119.769 169.058C120.739 168.645 121.654 168.022 122.425 167.219C123.194 166.415 123.829 165.447 124.262 164.38L124.41 163.974L124.411 163.972C124.462 163.838 124.514 163.703 124.544 163.562L124.654 163.141C124.663 163.106 124.673 163.072 124.682 163.037C124.711 162.932 124.74 162.826 124.75 162.717C124.765 162.598 124.784 162.48 124.802 162.362ZM129.85 161.679V163.701C129.85 168.351 131.204 170.88 131.406 171.232C131.675 171.629 131.833 172.107 131.833 172.622C131.833 173.991 130.723 175.101 129.355 175.101C128.493 175.101 127.735 174.661 127.291 173.994L127.289 173.996C127.163 173.807 126.538 172.816 125.958 171.021C124.86 172.186 123.546 173.175 122.065 173.883C120.422 174.674 118.574 175.103 116.738 175.101C114.901 175.105 113.052 174.678 111.408 173.889C109.758 173.102 108.311 171.97 107.143 170.63C104.795 167.947 103.583 164.435 103.582 160.975C103.583 157.515 104.795 154.004 107.143 151.321C108.311 149.981 109.758 148.848 111.408 148.062C113.052 147.272 114.901 146.845 116.738 146.85C118.574 146.848 120.422 147.277 122.065 148.067C123.093 148.559 124.042 149.185 124.894 149.913V149.328C124.894 147.959 126.004 146.85 127.372 146.85C128.741 146.85 129.85 147.959 129.85 149.328L129.85 149.333L129.85 160.271C129.861 160.506 129.867 160.741 129.867 160.975C129.867 161.21 129.861 161.444 129.85 161.679Z" fill="#57C301"/>
<defs>
<filter id="filter0_d_290_5053" x="37.9258" y="15.9863" width="93.1484" height="92" filterUnits="userSpaceOnUse" color-interpolation-filters="sRGB">
<feFlood flood-opacity="0" result="BackgroundImageFix"/>
<feColorMatrix in="SourceAlpha" type="matrix" values="0 0 0 0 0 0 0 0 0 0 0 0 0 0 0 0 0 0 127 0" result="hardAlpha"/>
<feOffset dy="4"/>
<feGaussianBlur stdDeviation="3"/>
<feComposite in2="hardAlpha" operator="out"/>
<feColorMatrix type="matrix" values="0 0 0 0 0.0621844 0 0 0 0 0.4125 0 0 0 0 0.00515625 0 0 0 0.24 0"/>
<feBlend mode="normal" in2="BackgroundImageFix" result="effect1_dropShadow_290_5053"/>
<feBlend mode="normal" in="SourceGraphic" in2="effect1_dropShadow_290_5053" result="shape"/>
</filter>
<linearGradient id="paint0_linear_290_5053" x1="142.169" y1="1.14689" x2="26.7952" y2="115.174" gradientUnits="userSpaceOnUse">
<stop stop-color="#BCEB00"/>
<stop offset="1" stop-color="#18AA00"/>
</linearGradient>
</defs>
</svg>
