<svg width="201" height="88" viewBox="0 0 201 88" fill="none" xmlns="http://www.w3.org/2000/svg">
<g clip-path="url(#clip0_290_5071)">
<path d="M199.883 41.5796C199.283 39.8312 198.35 38.2156 197.135 36.8219C196.91 36.5644 196.742 36.2617 196.644 35.9341C196.545 35.6065 196.518 35.2615 196.563 34.9224C197.192 30.5874 194.326 27.0591 193.568 22.9819C193.191 20.8791 193.54 18.7106 194.558 16.8325C194.991 16 195.72 15.3119 195.749 14.2706C195.749 13.9614 195.749 13.8299 195.419 13.8454C194.762 13.8763 194.107 13.9227 193.45 13.9304C192.05 13.9459 190.728 14.134 189.54 15.0103C183.935 18.6314 180.777 24.5798 177.089 29.9199C174.179 33.9672 171.05 37.8535 167.718 41.5615C166.906 42.7136 165.497 43.9507 163.966 43.5177C162.935 43.1337 161.734 41.5718 161.85 40.443C161.982 38.704 162.635 37.0452 163.723 35.6827C166.002 33.2008 168.363 30.7859 170.633 28.2808C172.347 26.0798 175.344 24.1236 175.411 21.1185C175.381 18.1185 172.594 15.4949 169.592 15.7706C165.672 16.1134 162.971 19.5721 160.855 22.5386C156.858 28.1519 156.108 36.0075 155.7 37.3116C154.863 40.5358 152.438 42.8115 150.149 45.0641C148.961 46.1955 147.651 47.4429 145.979 47.7393C143.894 47.7728 145.036 42.8811 145.412 41.644C146.324 38.9456 147.311 36.2704 148.229 33.5719C149.35 30.3993 150.438 27.2138 151.523 24.036C151.914 22.6262 152.736 21.2809 152.881 19.8376C146.587 22.6546 148.159 20.9458 145.747 27.2576C144.458 30.6081 143.203 33.9895 141.899 37.3425C141.061 39.742 140.038 42.0796 139.61 44.5976C139.131 47.5151 136.394 49.1362 134.046 50.4738C130.476 51.7238 132.103 45.8785 132.59 44.162C137.783 29.7292 143.237 15.4201 148.438 0.987305C142.432 3.33779 143.046 2.41512 140.945 8.54906C139.105 13.7036 137.224 18.8582 135.226 23.9715C135.069 24.3942 135.025 24.3813 134.582 24.2576C131.822 23.2112 128.796 23.4844 126.551 25.4896C124.503 27.1501 122.665 29.0542 121.077 31.1596C119.312 33.3426 118.191 35.9018 116.83 38.3245C116.183 39.2909 115.198 39.7703 114.082 40.0332C113.41 40.193 113.309 40.1363 113.26 39.4456C112.711 35.9456 113.66 30.6467 110.564 28.2859C107.523 26.4303 104.317 28.9741 101.879 30.7163C97.6341 33.8967 94.9125 38.4044 92.7939 43.1749C92.0903 44.577 90.8301 45.1182 89.361 45.2909C89.0646 45.3244 88.9074 45.1878 88.8894 44.8682C88.3894 41.412 89.3069 35.59 86.0105 33.4688C81.5106 31.2756 75.6138 37.2188 73.088 40.51C68.436 46.1104 65.9515 53.4377 66.9025 60.7108C67.0726 63.4195 68.887 66.5045 71.9205 66.3808C76.8921 66.1231 80.2348 61.6798 82.8894 57.9402C84.279 55.8703 85.4535 53.6639 86.3945 51.3552C87.1677 49.2934 88.2785 47.5666 90.7321 47.747C91.4254 47.7599 91.4383 47.747 91.428 48.4248C91.4022 50.2882 91.3146 52.1516 91.3558 54.0098C90.9641 61.1128 96.2784 62.7932 101.588 59.0046C106.51 55.2882 109.314 49.7006 111.685 44.1826C112.363 43.1362 113.443 42.7161 114.626 42.5229C115.028 42.4558 115.121 42.5512 115.062 42.9533C114.959 43.6285 114.85 44.3063 114.783 44.9842C114.665 47.9197 113.667 51.0666 115 53.8449C115.344 54.5954 115.891 55.2346 116.58 55.6901C117.269 56.1456 118.071 56.3992 118.897 56.4222C122.134 56.551 124.41 54.0871 126.987 52.4712C128.085 53.8938 129.639 54.8784 131.348 54.2315C134.268 53.3758 136.685 51.4763 138.987 49.5511C139.273 49.3217 139.471 49.2934 139.726 49.613C143.592 54.6361 148.878 49.0357 152.221 46.278C153.376 45.2934 154.528 44.3063 155.664 43.3012C156.239 42.7703 156.35 42.8321 156.649 43.5151C158.242 47.6053 162.811 49.2496 166.463 46.6259C169.667 44.863 171.659 41.7677 173.842 38.9507C177.084 34.5384 180.285 30.09 183.46 25.6365C185.02 23.3955 186.694 21.2363 188.476 19.1675C188.542 19.0997 188.623 19.0478 188.712 19.0156C188.801 18.9835 188.897 18.972 188.991 18.9819C189.099 19.0051 189.215 19.2654 189.223 19.4278C188.911 23.2112 190.2 26.7473 191.594 30.1957C191.661 30.7111 192.883 32.7395 191.836 32.6209C189.811 32.6209 187.736 32.2962 185.731 32.6003C182.806 33.3606 181.633 36.6827 182.009 39.425C182.234 42.0022 184.545 42.9069 186.803 43.1852C190.44 43.9249 193.813 41.845 195.731 38.8425C198.45 42.8785 196.2 48.4068 192.295 50.7109C189.607 52.2573 186.45 52.5485 183.494 53.3139C174.236 55.4351 164.801 56.5897 155.401 57.8912C133.621 60.9376 111.606 62.886 90.2424 68.3653C81.7219 70.5405 73.3689 73.4245 65.4309 77.2131C60.0186 79.8626 54.864 82.9708 49.7455 86.1073C49.3512 86.3496 49.3976 86.9733 49.9723 86.963C53.8383 86.8599 57.9361 87.5042 61.632 86.0635C66.168 83.677 70.6525 81.1306 75.4591 79.2724C84.0209 75.6642 93.1161 73.5585 102.144 71.4787C115.255 68.5612 128.52 66.4555 141.817 64.5793C151.517 63.3576 161.195 61.9659 170.87 60.5484C176.517 59.5175 182.29 58.9479 187.77 57.1721C194.88 55.0304 202.782 50.1568 199.883 41.5796ZM162.481 29.8813C163.914 26.6648 165.226 23.1623 168.187 21.0154C169.517 19.9845 171.744 20.8917 170.865 22.8195C170.26 24.0557 169.46 25.1868 168.497 26.17C166.618 28.1854 164.788 30.2653 162.888 32.2549C162.7 32.3451 162.486 32.5127 162.319 32.4792C161.306 32.1622 162.327 30.5746 162.481 29.8813ZM84.9203 39.8863C81.8276 42.2909 80.0905 45.6929 84.0647 48.2857C85.9152 49.381 82.3018 54.7289 81.4152 56.0175C80.1716 57.7527 78.6596 59.2786 76.9359 60.5381C75.454 61.5922 73.5854 61.3705 72.4952 60.0896C71.6061 58.9737 71.7349 57.6129 71.521 56.1954C71.8818 51.0794 73.0674 45.8115 76.1601 41.5796C77.9977 39.1543 79.9513 36.5384 82.7966 35.2755C85.3043 34.2807 86.959 38.4301 84.9203 39.8863ZM107.631 42.3296C108.405 42.8991 109.435 43.6182 108.979 44.7161C108.213 46.8464 107.161 48.863 105.853 50.7109C104.322 52.5897 101.049 56.917 98.348 55.8165C96.6985 55.2392 96.196 53.8784 96.0284 52.3243C95.8804 47.5797 96.9524 42.8765 99.1418 38.6647C100.309 36.0874 107.936 25.8555 110.054 31.6854C110.928 34.4431 107.812 35.3632 106.755 37.3992C105.794 39.1208 106.07 41.0641 107.631 42.3296ZM131.319 34.1544C130.309 36.9671 129.258 39.7634 128.167 42.5435C126.855 45.3501 126.188 50.5124 122.819 51.4583C119.868 51.8166 119.508 48.2882 119.415 45.8501C119.706 43.6027 120.417 40.7213 121.446 38.5435C123.069 34.7858 125.446 31.4508 127.92 28.2138C128.46 27.4296 129.248 26.8494 130.157 26.5658C131.067 26.2821 132.045 26.3116 132.935 26.6493C134.515 27.5514 131.67 32.608 131.319 34.1544ZM192.349 37.2987C191.834 40.7394 187.236 41.9997 186.739 37.876C186.656 35.8992 188.045 34.4328 190.007 34.8297C191.452 35.0075 192.715 35.59 192.349 37.2858V37.2987Z" fill="white"/>
<path d="M56.0495 72.6796C57.9567 69.5172 59.0598 65.9425 60.2788 62.4761C62.7375 55.4659 65.0159 48.3912 67.2633 41.3114C68.9179 36.2393 70.4436 31.1157 72.539 26.2034C74.1034 22.3374 77.2348 19.9457 81.1858 18.8452L81.3198 18.6545C77.7116 16.3349 75.1755 15.719 71.8843 18.9947C69.3638 20.9895 68.7401 23.7704 67.5287 26.5874C64.6679 33.3656 62.5984 40.4274 60.3974 47.4376C57.9077 55.0303 55.9258 62.7957 53.0366 70.2363C51.7222 73.6847 46.8512 77.6382 44.0728 73.3522C42.9388 71.5481 42.627 69.458 42.8821 67.3729C43.1192 64.9245 43.3125 62.4761 44.1347 60.1333C46.8872 50.8164 50.2918 41.765 53.0573 32.4455C51.7248 32.7909 50.6449 33.5228 49.2815 33.7754C48.6204 33.9235 48.0369 34.3097 47.6424 34.8605C46.2893 37.0073 45.8022 39.546 44.8718 41.881C41.145 52.1154 37.7688 62.4993 33.5652 72.5507C32.122 75.6099 29.8797 78.7362 26.5241 79.7929C23.4185 80.4733 21.751 77.8084 21.4237 75.0764C21.0989 73.829 21.269 72.6151 21.5731 71.3909C22.1169 69.2157 22.5216 67.0095 23.0345 64.8291C24.7741 57.9169 28.1014 51.5458 30.8978 45.0227C35.1065 35.5873 39.444 26.2085 43.7507 16.8169L43.6682 16.7061C36.5111 19.2833 29.4674 22.3348 21.9726 23.8348C19.2516 24.3113 16.5044 24.6237 13.7459 24.7704C11.9908 24.8477 10.264 24.9946 8.5733 25.5436C5.44963 26.4224 3.26925 28.9533 1.92133 31.7986C-0.913689 37.5511 0.194543 46.6052 8.08104 46.7031C10.3774 46.7366 13.8748 45.7933 15.1402 43.7547L15.05 43.6361C13.215 43.4763 11.3001 43.8629 9.55009 43.1207C4.31305 41.131 4.57593 34.2651 8.06558 30.8244C10.9135 27.3709 15.3696 26.8812 19.4752 25.9997C24.6968 24.8864 29.7844 23.7214 34.8307 21.9251C29.5034 34.2831 22.8283 46.0974 18.9598 59.038C17.1557 65.507 13.7665 79.0042 21.7252 82.4011C26.2045 84.3392 30.9673 81.2207 33.3668 77.4759C34.8848 75.2104 35.9441 72.695 37.1193 70.244H37.2405C38.4492 74.1357 40.9569 78.3315 45.5213 78.3135C49.6552 78.3754 53.8356 76.1847 56.0495 72.6796Z" fill="white"/>
<path d="M153.399 14.4228C156.77 14.6805 159.381 9.33266 155.009 8.82751C151.27 8.57236 149.85 14.3738 153.399 14.4228Z" fill="white"/>
</g>
<defs>
<clipPath id="clip0_290_5071">
<rect width="200" height="86.0401" fill="white" transform="translate(0.5 0.979492)"/>
</clipPath>
</defs>
</svg>
